<svg class="sprite" xmlns="http://www.w3.org/2000/svg" xmlns:xlink="http://www.w3.org/1999/xlink"><symbol viewBox="0 0 30 24" id="arrow-left" xmlns="http://www.w3.org/2000/svg"><g clip-path="url(#a)" stroke-width="2" stroke-linecap="square" stroke-linejoin="round"><path d="M12.21 22.49.99 11.66l9.9-10.25M3.1 11.95h25"/></g><defs><clipPath><path d="M0 0h29.11v23.904H0z"/></clipPath></defs></symbol><symbol viewBox="0 0 30 24" id="arrow-right" xmlns="http://www.w3.org/2000/svg"><g clip-path="url(#a)" stroke-width="2" stroke-linecap="square" stroke-linejoin="round"><path d="M16.89 1.41 28.1 12.23l-9.89 10.26M26 11.95H1"/></g><defs><clipPath><path d="M0 0h29.11v23.904H0z"/></clipPath></defs></symbol><symbol viewBox="0 0 22 20" id="heart" xmlns="http://www.w3.org/2000/svg"><path d="M16.166 0C13.917 0 11.976 1.33 11 3.27 10.024 1.33 8.083 0 5.834 0 2.611 0 0 2.73 0 6.09s1.999 6.44 4.582 8.97C7.163 17.59 11 20 11 20s3.711-2.37 6.419-4.94C20.306 12.32 22 9.46 22 6.09 22 2.72 19.389 0 16.166 0Z"/></symbol><symbol viewBox="0 0 19 19" id="key" xmlns="http://www.w3.org/2000/svg"><path d="M6.438.05a5.853 5.853 0 0 1 2.468 1.053c.76.568 1.488 1.548 1.837 2.472.434 1.154.464 2.554.074 3.712a6.756 6.756 0 0 1-.623 1.299l-.171.26 4.428 4.435c3.043 3.047 4.446 4.48 4.494 4.58.045.103.06.207.049.397-.015.308-.145.52-.398.653a.962.962 0 0 1-.738.022c-.082-.037-.598-.52-1.277-1.195l-1.143-1.132-1.14 1.132c-.682.675-1.198 1.158-1.28 1.195a.962.962 0 0 1-.739-.022c-.252-.134-.382-.345-.397-.653-.01-.19 0-.294.052-.398.041-.092.483-.564 1.2-1.287l1.135-1.14-.601-.601-.602-.601-.738.727c-.794.79-.924.883-1.251.883a.791.791 0 0 1-.798-.805c.004-.32.1-.453.883-1.243l.728-.739-1.518-1.518-1.522-1.518-.26.17a5.538 5.538 0 0 1-2.806.892 5.506 5.506 0 0 1-4.216-1.663 4.864 4.864 0 0 1-.813-1.054A5.601 5.601 0 0 1 .05 6.396c-.067-.43-.067-1.321 0-1.726A5.553 5.553 0 0 1 4.675.046c.39-.064 1.354-.06 1.763.003ZM5.102 1.63a3.92 3.92 0 0 0-2.335 1.132A3.906 3.906 0 0 0 2.86 8.4c.497.471 1.006.753 1.722.954.408.115 1.27.133 1.726.037a3.952 3.952 0 0 0 2.898-2.438c.205-.524.268-.92.245-1.56C9.425 4.67 9.325 4.292 9 3.68a3.965 3.965 0 0 0-2.97-2.049 3.238 3.238 0 0 0-.927 0Z"/></symbol><symbol viewBox="0 0 25 25" id="parking" xmlns="http://www.w3.org/2000/svg"><path d="M11.15.052c-2.258.234-4.655 1.22-6.466 2.665-.54.434-1.472 1.36-1.923 1.928-4.07 5.067-3.59 12.413 1.103 16.9 1.901 1.812 4.186 2.921 6.895 3.339.875.14 2.626.14 3.512 0 1.41-.212 2.575-.58 3.79-1.182 3.73-1.856 6.187-5.256 6.834-9.442.14-.88.14-2.625.005-3.511-.412-2.681-1.532-5-3.338-6.89A12.444 12.444 0 0 0 13.948.075c-.758-.09-2.035-.1-2.799-.023Zm3.02 1.299a11.334 11.334 0 0 1 9.22 8.255c.25.942.312 1.41.34 2.592.022.886.005 1.293-.061 1.806-.703 5.005-4.638 8.946-9.627 9.648-.836.117-2.302.117-3.093 0-4.833-.713-8.606-4.33-9.526-9.141-.602-3.144.301-6.622 2.363-9.13.385-.468 1.238-1.316 1.695-1.683 1.627-1.31 3.773-2.185 5.947-2.425.624-.067 2.063-.022 2.743.078Z"/><path d="M9.8 7.21a.66.66 0 0 0-.211.194c-.04.067-.056 1.8-.056 5.112v5.01l.156.157c.207.19.496.24.725.122.345-.178.345-.195.345-2.57V13.09h2.024c1.689 0 2.073-.017 2.33-.09.808-.24 1.51-.819 1.85-1.532.786-1.645.067-3.49-1.616-4.164l-.38-.15-2.508-.012c-2.145-.01-2.53-.005-2.658.067Zm5.168 1.298c.156.072.396.245.54.385.352.345.508.719.513 1.22.006.346-.017.44-.19.78-.139.274-.272.44-.473.591-.474.363-.597.38-2.715.38H10.76V8.345l1.968.017c1.912.017 1.968.022 2.24.145Z"/></symbol></svg>