<svg width="389" height="5460" viewBox="0 0 389 5460" fill="none" xmlns="http://www.w3.org/2000/svg">
<path opacity="0.1" d="M6.99997 5460L6.99997 5394H382V5460H6.99997ZM342 4962.59L345 4989.59H6.99997L6.99997 4925.59H382V5009.59L44 5272.59L41 5246.09H382V5310.09H6.99997L6.99997 5224.09L342 4962.59ZM171 4809.83L171 4540.33H229L229 4809.83H171ZM6.99997 4532.33H65L65 4811.83L27.5 4775.83H382V4841.83H6.99997L6.99997 4532.33ZM176 4425.71L176 4273.21C176 4251.21 171 4233.88 161 4221.21C151 4208.21 137.333 4201.71 120 4201.71C102.333 4201.71 88.6667 4208.21 79 4221.21C69 4233.88 64 4251.21 64 4273.21L64 4435.21L27 4405.71H382V4471.71H6.99997L6.99997 4267.21C6.99997 4240.88 11.8333 4217.88 21.5 4198.21C30.8333 4178.21 44 4162.71 61 4151.71C77.6667 4140.38 97.3333 4134.71 120 4134.71C142 4134.71 161.5 4140.38 178.5 4151.71C195.167 4162.71 208.333 4178.21 218 4198.21C227.333 4217.88 232 4240.88 232 4267.21L232 4425.71H176ZM206.5 4351.71L206.5 4274.21L382 4125.21V4204.21L206.5 4351.71ZM389 3874.37C389 3917.04 380.833 3954.54 364.5 3986.87C348.167 4019.2 325.5 4044.37 296.5 4062.37C267.167 4080.37 233.167 4089.37 194.5 4089.37C155.833 4089.37 122 4080.37 93 4062.37C63.6667 4044.37 40.8333 4019.2 24.5 3986.87C8.16664 3954.54 -2.90871e-05 3917.04 -2.90871e-05 3874.37C-2.90871e-05 3831.7 8.16664 3794.2 24.5 3761.87C40.8333 3729.54 63.6667 3704.37 93 3686.37C122 3668.37 155.833 3659.37 194.5 3659.37C233.167 3659.37 267.167 3668.37 296.5 3686.37C325.5 3704.37 348.167 3729.54 364.5 3761.87C380.833 3794.2 389 3831.7 389 3874.37ZM330 3874.37C330 3844.04 324.5 3817.87 313.5 3795.87C302.5 3773.87 286.833 3756.87 266.5 3744.87C246.167 3732.54 222.167 3726.37 194.5 3726.37C166.833 3726.37 142.833 3732.54 122.5 3744.87C102.167 3756.87 86.5 3773.87 75.5 3795.87C64.5 3817.87 59 3844.04 59 3874.37C59 3904.37 64.5 3930.54 75.5 3952.87C86.5 3974.87 102.167 3992.04 122.5 4004.37C142.833 4016.37 166.833 4022.37 194.5 4022.37C222.167 4022.37 246.167 4016.37 266.5 4004.37C286.833 3992.04 302.5 3974.87 313.5 3952.87C324.5 3930.54 330 3904.37 330 3874.37ZM260 3618.25V3551.25C275 3549.25 288.167 3543.08 299.5 3532.75C310.833 3522.08 319.667 3508.08 326 3490.75C332 3473.42 335 3453.42 335 3430.75C335 3397.08 329.833 3370.42 319.5 3350.75C308.833 3331.08 294.5 3321.25 276.5 3321.25C261.833 3321.25 250.833 3326.92 243.5 3338.25C236.167 3349.58 230.667 3370.08 227 3399.75L216.5 3480.75C210.5 3526.08 199.333 3559.08 183 3579.75C166.333 3600.08 142.833 3610.25 112.5 3610.25C89.5 3610.25 69.6666 3603.42 53 3589.75C36 3575.75 23 3556.08 14 3530.75C4.66664 3505.42 -2.90871e-05 3475.75 -2.90871e-05 3441.75C-2.90871e-05 3408.08 4.99998 3378.25 15 3352.25C25 3326.25 39 3305.58 57 3290.25C74.6667 3274.58 95.5 3266.08 119.5 3264.75L119.5 3331.75C106.167 3333.42 94.6667 3339.08 85 3348.75C75.3333 3358.08 67.8333 3370.75 62.5 3386.75C56.8333 3402.75 54 3421.58 54 3443.25C54 3473.92 59 3498.42 69 3516.75C79 3535.08 92.6667 3544.25 110 3544.25C123.333 3544.25 133.667 3538.92 141 3528.25C148 3517.25 153.333 3498.25 157 3471.25L168.5 3389.25C173.167 3355.58 179.5 3329.08 187.5 3309.75C195.167 3290.08 205.667 3276.08 219 3267.75C232 3259.42 248.833 3255.25 269.5 3255.25C293.5 3255.25 314.5 3262.58 332.5 3277.25C350.5 3291.92 364.5 3312.58 374.5 3339.25C384.167 3365.58 389 3396.42 389 3431.75C389 3467.75 383.667 3499.58 373 3527.25C362 3554.58 346.833 3576.25 327.5 3592.25C308.167 3608.25 285.667 3616.92 260 3618.25ZM37.5 3088.02L37.5 3022.02H382V3088.02H37.5ZM6.99997 3243.02L6.99997 2867.02H65L65 3243.02H6.99997ZM176 2770.93V2618.43C176 2596.43 171 2579.1 161 2566.43C151 2553.43 137.333 2546.93 120 2546.93C102.333 2546.93 88.6667 2553.43 79 2566.43C69 2579.1 64 2596.43 64 2618.43L64 2780.43L27 2750.93H382V2816.93H6.99997L6.99997 2612.43C6.99997 2586.1 11.8333 2563.1 21.5 2543.43C30.8333 2523.43 44 2507.93 61 2496.93C77.6667 2485.6 97.3333 2479.93 120 2479.93C142 2479.93 161.5 2485.6 178.5 2496.93C195.167 2507.93 208.333 2523.43 218 2543.43C227.333 2563.1 232 2586.1 232 2612.43V2770.93H176ZM206.5 2696.93V2619.43L382 2470.43V2549.43L206.5 2696.93ZM221 2350.66C243.333 2350.66 262.667 2346.16 279 2337.16C295.333 2328.16 308 2315.32 317 2298.66C325.667 2281.66 330 2261.49 330 2238.16C330 2214.49 325.667 2194.32 317 2177.66C308 2160.99 295.333 2148.16 279 2139.16C262.667 2130.16 243.333 2125.66 221 2125.66H6.99997L6.99997 2059.66H223.5C256.5 2059.66 285.5 2067.16 310.5 2082.16C335.167 2097.16 354.5 2117.99 368.5 2144.66C382.167 2171.32 389 2202.49 389 2238.16C389 2273.49 382.167 2304.66 368.5 2331.66C354.5 2358.32 335.167 2379.16 310.5 2394.16C285.5 2409.16 256.5 2416.66 223.5 2416.66H6.99997L6.99997 2350.66H221ZM233.5 1585C264.167 1588.34 291.333 1599.17 315 1617.5C338.333 1635.5 356.5 1659.17 369.5 1688.5C382.5 1717.84 389 1751.34 389 1789C389 1831 380.833 1867.84 364.5 1899.5C348.167 1931.17 325.5 1955.84 296.5 1973.5C267.167 1991.17 233.167 2000 194.5 2000C155.833 2000 122 1991.17 93 1973.5C63.6667 1955.84 40.8333 1931.17 24.5 1899.5C8.16664 1867.84 -2.90871e-05 1831 -2.90871e-05 1789C-2.90871e-05 1751.34 6.49998 1717.84 19.5 1688.5C32.5 1659.17 50.6666 1635.5 74 1617.5C97.3333 1599.17 124.5 1588.34 155.5 1585V1651.5C135.5 1655.17 118.333 1663.17 104 1675.5C89.6666 1687.5 78.6666 1703.17 71 1722.5C63 1741.84 59 1764.17 59 1789.5C59 1818.84 64.5 1844.34 75.5 1866C86.5 1887.34 102.167 1903.84 122.5 1915.5C142.833 1927.17 166.833 1933 194.5 1933C222.167 1933 246.167 1927.17 266.5 1915.5C286.833 1903.84 302.5 1887.34 313.5 1866C324.5 1844.34 330 1818.84 330 1789.5C330 1764.17 326.167 1741.84 318.5 1722.5C310.833 1703.17 299.833 1687.5 285.5 1675.5C270.833 1663.17 253.5 1655.17 233.5 1651.5V1585ZM37.5 1421.52L37.5 1355.52H382V1421.52H37.5ZM6.99997 1576.52L6.99997 1200.52H65L65 1576.52H6.99997ZM221 1089.43C243.333 1089.43 262.667 1084.93 279 1075.93C295.333 1066.93 308 1054.09 317 1037.43C325.667 1020.43 330 1000.26 330 976.926C330 953.259 325.667 933.092 317 916.426C308 899.759 295.333 886.926 279 877.926C262.667 868.926 243.333 864.426 221 864.426H6.99997L6.99997 798.426H223.5C256.5 798.426 285.5 805.926 310.5 820.926C335.167 835.926 354.5 856.759 368.5 883.426C382.167 910.092 389 941.259 389 976.926C389 1012.26 382.167 1043.43 368.5 1070.43C354.5 1097.09 335.167 1117.93 310.5 1132.93C285.5 1147.93 256.5 1155.43 223.5 1155.43H6.99997L6.99997 1089.43H221ZM176 673.273L176 520.773C176 498.773 171 481.44 161 468.773C151 455.773 137.333 449.273 120 449.273C102.333 449.273 88.6667 455.773 79 468.773C69 481.44 64 498.773 64 520.773L64 682.773L27 653.273H382V719.273H6.99997L6.99997 514.773C6.99997 488.44 11.8333 465.44 21.5 445.773C30.8333 425.773 44 410.273 61 399.273C77.6667 387.94 97.3333 382.273 120 382.273C142 382.273 161.5 387.94 178.5 399.273C195.167 410.273 208.333 425.773 218 445.773C227.333 465.44 232 488.44 232 514.773L232 673.273H176ZM206.5 599.273V521.773L382 372.773L382 451.773L206.5 599.273ZM167 14.5H222L222 303H167L167 14.5ZM194.5 259.5H362L325 291V-6.19888e-06H382V327H194.5H6.99997L6.99997 2.49999H64L64 291L27 259.5H194.5Z" fill="#F8F0E5"/>
</svg>
