<svg width="30" height="30" viewBox="0 0 30 30" fill="none" xmlns="http://www.w3.org/2000/svg">
<rect x="0.25" y="0.25" width="29.5" height="29.5" rx="14.75" fill="#374855"/>
<rect x="0.25" y="0.25" width="29.5" height="29.5" rx="14.75" stroke="#374532" stroke-width="0.5"/>
<path d="M14.0039 9.00413C11.3031 9.33233 8.40464 10.8903 5.7355 13.4567C5.06722 14.0972 5 14.1921 5 14.4808C5 14.7655 5.06722 14.8604 5.69595 15.4694C8.27019 17.9566 11.058 19.5027 13.7587 19.9259C14.3796 20.0247 15.8743 20.0247 16.507 19.9259C19.1761 19.5027 21.9204 17.9883 24.5302 15.4852C25.1787 14.8644 25.2459 14.7695 25.2459 14.4808C25.2459 14.1921 25.1787 14.0972 24.5104 13.4567C21.8215 10.8745 18.927 9.32442 16.2064 9.00413C15.5975 8.93295 14.597 8.93295 14.0039 9.00413ZM15.7556 9.59727C17.0724 9.66054 18.7095 10.1865 20.2082 11.0208C21.5803 11.78 23.1146 12.9465 24.2376 14.0854L24.633 14.4848L24.0755 15.0305C21.956 17.0946 19.5557 18.5458 17.3255 19.1113C16.5821 19.3011 15.9099 19.3841 15.1427 19.3841C14.2333 19.3881 13.7548 19.3248 12.8374 19.0836C10.6269 18.5102 8.25437 17.0669 6.17047 15.0265L5.61291 14.4808L6.17047 13.9312C8.80797 11.3411 11.92 9.73567 14.6089 9.58145C14.8818 9.56564 15.1586 9.55773 15.2218 9.56564C15.289 9.56959 15.5263 9.58541 15.7556 9.59727Z" fill="#F8F0E5"/>
<path d="M14.2764 10.194C12.5286 10.538 11.1644 11.9141 10.8322 13.6619C10.7571 14.0692 10.7571 14.8916 10.8322 15.2989C11.1644 17.0586 12.5444 18.4386 14.3041 18.7708C14.7114 18.8459 15.5339 18.8459 15.9412 18.7708C17.7008 18.4386 19.0809 17.0586 19.413 15.2989C19.4882 14.8916 19.4882 14.0692 19.413 13.6619C19.0809 11.9022 17.7008 10.5222 15.9412 10.19C15.5536 10.1149 14.6521 10.1188 14.2764 10.194ZM15.9016 10.8187C17.0563 11.0639 18.1002 11.9259 18.5668 13.0173C18.8634 13.7172 18.9425 14.603 18.7645 15.3266C18.5075 16.3864 17.8194 17.2721 16.8506 17.7822C15.783 18.3437 14.6086 18.3675 13.5211 17.8455C13.0585 17.6241 12.7342 17.3868 12.4021 17.0349C12.0897 16.6988 11.9473 16.4892 11.7378 16.0463C11.4886 15.5164 11.3937 15.0854 11.3937 14.4804C11.3937 13.4286 11.7852 12.5112 12.5444 11.7875C13.4539 10.9176 14.6837 10.5617 15.9016 10.8187Z" fill="#F8F0E5"/>
<path d="M14.6172 13.2988C13.8105 13.6112 13.5891 14.7619 14.2139 15.3906C14.8466 16.0193 16.0012 15.7939 16.3057 14.9754C16.4915 14.4851 16.3808 13.9235 16.0328 13.5716C15.6809 13.2236 15.1036 13.1129 14.6172 13.2988ZM15.3843 13.884C15.8075 14.0778 15.9103 14.6116 15.5821 14.9398C15.0087 15.5132 14.115 14.7065 14.6172 14.0659C14.7121 13.9433 14.9771 13.8089 15.1234 13.8089C15.1787 13.8089 15.2934 13.8445 15.3843 13.884Z" fill="#F8F0E5"/>
</svg>
