<svg width="30" height="30" viewBox="0 0 30 30" fill="none" xmlns="http://www.w3.org/2000/svg">
<rect x="0.25" y="0.25" width="29.5" height="29.5" rx="14.75" stroke="#875041" stroke-width="0.5"/>
<path d="M14.4718 5.87091C13.8242 6.02127 13.1993 6.53837 12.904 7.16182C12.2942 8.44173 13.0062 9.95269 14.4112 10.3634C14.8353 10.4881 15.4185 10.4808 15.8313 10.3451C16.8538 10.0077 17.4863 9.15687 17.4863 8.12267C17.4863 7.45888 17.278 6.97112 16.7781 6.48703C16.5357 6.24498 16.4145 6.16063 16.1532 6.03961C15.9752 5.95893 15.7404 5.87458 15.6306 5.85257C15.3579 5.79756 14.7444 5.80856 14.4718 5.87091ZM15.6193 6.50536C16.6607 6.82076 17.1454 7.97231 16.6417 8.93683C16.4221 9.35491 15.8806 9.72531 15.3617 9.80966C14.4339 9.96003 13.5137 9.30723 13.3508 8.39039C13.2145 7.5909 13.7447 6.75841 14.5551 6.50536C14.8505 6.41735 15.3201 6.41368 15.6193 6.50536Z" fill="#875041"/>
<path d="M6.08677 7.91402C5.99966 8.00571 5.97694 8.18907 6.04132 8.30643C6.06026 8.3431 6.13221 8.39078 6.19659 8.41278C6.2799 8.44212 7.23802 8.45312 9.37012 8.45312H12.4225V8.1414V7.82967H9.29438H6.16629L6.08677 7.91402Z" fill="#875041"/>
<path d="M17.751 8.1414V8.45312H20.8109C22.943 8.45312 23.9049 8.44212 23.9882 8.41278C24.1283 8.36511 24.1813 8.28443 24.1813 8.11206C24.1813 8.03138 24.1511 7.9617 24.0942 7.91035L24.0071 7.82967H20.8791H17.7548L17.751 8.1414Z" fill="#875041"/>
<path d="M8.08726 12.597C7.52678 12.6704 7.12535 12.8647 6.70121 13.2755C6.45126 13.5102 6.36416 13.6275 6.23919 13.8806C6.05363 14.2583 6.00439 14.4784 6.00439 14.9075C6.00439 15.3365 6.05363 15.5566 6.23919 15.9343C6.51943 16.5028 7.15186 17.0089 7.76536 17.1556C8.1327 17.2436 8.37507 17.2582 8.70076 17.2179C9.66266 17.0895 10.4239 16.4661 10.7079 15.5676C10.8329 15.1678 10.8253 14.5994 10.6889 14.1887C10.3973 13.3305 9.64751 12.7254 8.7159 12.6007C8.39779 12.5567 8.39401 12.5567 8.08726 12.597ZM8.8636 13.2645C9.48467 13.4148 10.0149 13.9906 10.136 14.6471C10.2307 15.1678 10.0262 15.7436 9.60586 16.1324C8.48111 17.1666 6.64819 16.4074 6.64819 14.9075C6.64819 13.7742 7.71613 12.9858 8.8636 13.2645Z" fill="#875041"/>
<path d="M11.0596 14.9078V15.2012H17.5467C23.9809 15.2012 24.0301 15.2012 24.1059 15.1278C24.1551 15.0801 24.1816 15.0068 24.1816 14.9078C24.1816 14.8088 24.1551 14.7354 24.1059 14.6877C24.0301 14.6144 23.9809 14.6144 17.5467 14.6144H11.0596V14.9078Z" fill="#875041"/>
<path d="M21.41 19.3819C20.1489 19.6019 19.2703 20.6948 19.3915 21.894C19.418 22.1764 19.5619 22.6312 19.6869 22.8292C20.0315 23.3866 20.6072 23.812 21.1942 23.9477C21.5085 24.0174 22.0955 24.0174 22.3833 23.9477C23.2164 23.7424 23.9132 23.0676 24.1253 22.2608C24.2011 21.9747 24.1973 21.3806 24.1215 21.0909C23.917 20.3244 23.2543 19.6716 22.4477 19.4405C22.1977 19.3709 21.6486 19.3379 21.41 19.3819ZM22.1409 20.02C22.9703 20.1924 23.5383 20.8708 23.5383 21.696C23.5383 22.6385 22.7733 23.3793 21.8001 23.3793C20.9215 23.3793 20.2095 22.7962 20.0505 21.9454C19.8952 21.1092 20.5125 20.2364 21.4024 20.0273C21.6903 19.9576 21.8342 19.9576 22.1409 20.02Z" fill="#875041"/>
<path d="M6.17511 21.4059C5.98197 21.5049 5.94031 21.7653 6.09179 21.9047L6.17889 21.9854H12.6547H19.1267V21.6736V21.3619H12.6888C8.1027 21.3656 6.22813 21.3766 6.17511 21.4059Z" fill="#875041"/>
</svg>
