<svg width="30" height="30" viewBox="0 0 30 30" fill="none" xmlns="http://www.w3.org/2000/svg">
<rect x="0.25" y="0.25" width="29.5" height="29.5" rx="14.75" stroke="#875041" stroke-width="0.5"/>
<path d="M14.4728 5.87127C13.8252 6.02164 13.2003 6.53874 12.9049 7.16219C12.2952 8.4421 13.0072 9.95306 14.4122 10.3638C14.8363 10.4885 15.4195 10.4812 15.8323 10.3455C16.8548 10.0081 17.4872 9.15724 17.4872 8.12304C17.4872 7.45925 17.2789 6.97149 16.7791 6.48739C16.5367 6.24535 16.4155 6.161 16.1542 6.03997C15.9762 5.95929 15.7414 5.87494 15.6316 5.85294C15.3589 5.79793 14.7454 5.80893 14.4728 5.87127ZM15.6202 6.50573C16.6617 6.82112 17.1464 7.97268 16.6427 8.9372C16.4231 9.35528 15.8815 9.72568 15.3627 9.81003C14.4349 9.96039 13.5146 9.3076 13.3518 8.39076C13.2155 7.59127 13.7456 6.75878 14.5561 6.50573C14.8515 6.41771 15.3211 6.41405 15.6202 6.50573Z" fill="#875041"/>
<path d="M6.08628 7.91402C5.99918 8.00571 5.97645 8.18907 6.04083 8.30643C6.05977 8.3431 6.13172 8.39078 6.1961 8.41278C6.27942 8.44212 7.23753 8.45312 9.36963 8.45312H12.422V8.1414V7.82967H9.29389H6.16581L6.08628 7.91402Z" fill="#875041"/>
<path d="M17.75 8.1414V8.45312H20.8099C22.942 8.45312 23.9039 8.44212 23.9872 8.41278C24.1274 8.36511 24.1804 8.28443 24.1804 8.11206C24.1804 8.03138 24.1501 7.9617 24.0933 7.91035L24.0062 7.82967H20.8781H17.7538L17.75 8.1414Z" fill="#875041"/>
<path d="M8.08677 12.5973C7.52629 12.6706 7.12487 12.865 6.70072 13.2757C6.45078 13.5104 6.36367 13.6278 6.2387 13.8808C6.05314 14.2586 6.00391 14.4786 6.00391 14.9077C6.00391 15.3368 6.05314 15.5568 6.2387 15.9346C6.51894 16.503 7.15138 17.0091 7.76487 17.1558C8.13221 17.2438 8.37458 17.2585 8.70027 17.2181C9.66217 17.0898 10.4234 16.4663 10.7074 15.5678C10.8324 15.1681 10.8248 14.5996 10.6885 14.1889C10.3969 13.3307 9.64703 12.7256 8.71542 12.6009C8.39731 12.5569 8.39352 12.5569 8.08677 12.5973ZM8.86311 13.2647C9.48418 13.4151 10.0144 13.9909 10.1356 14.6473C10.2302 15.1681 10.0257 15.7439 9.60537 16.1326C8.48062 17.1668 6.6477 16.4077 6.6477 14.9077C6.6477 13.7745 7.71564 12.986 8.86311 13.2647Z" fill="#875041"/>
<path d="M11.0605 14.9077V15.201H17.5477C23.9819 15.201 24.0311 15.201 24.1069 15.1277C24.1561 15.08 24.1826 15.0067 24.1826 14.9077C24.1826 14.8086 24.1561 14.7353 24.1069 14.6876C24.0311 14.6143 23.9819 14.6143 17.5477 14.6143H11.0605V14.9077Z" fill="#875041"/>
<path d="M21.4105 19.3819C20.1494 19.6019 19.2708 20.6948 19.392 21.894C19.4185 22.1764 19.5624 22.6312 19.6874 22.8292C20.032 23.3866 20.6077 23.812 21.1946 23.9477C21.509 24.0174 22.096 24.0174 22.3838 23.9477C23.2169 23.7424 23.9137 23.0676 24.1258 22.2608C24.2015 21.9747 24.1978 21.3806 24.122 21.0909C23.9175 20.3244 23.2548 19.6716 22.4481 19.4405C22.1982 19.3709 21.6491 19.3379 21.4105 19.3819ZM22.1414 20.02C22.9708 20.1924 23.5388 20.8708 23.5388 21.696C23.5388 22.6385 22.7738 23.3793 21.8006 23.3793C20.922 23.3793 20.21 22.7962 20.051 21.9454C19.8957 21.1092 20.513 20.2364 21.4029 20.0273C21.6907 19.9576 21.8346 19.9576 22.1414 20.02Z" fill="#875041"/>
<path d="M6.17511 21.4062C5.98197 21.5052 5.94031 21.7656 6.09179 21.9049L6.17889 21.9856H12.6547H19.1267V21.6739V21.3621H12.6888C8.1027 21.3658 6.22813 21.3768 6.17511 21.4062Z" fill="#875041"/>
</svg>
