<svg width="30" height="30" viewBox="0 0 30 30" fill="none" xmlns="http://www.w3.org/2000/svg">
<rect width="30" height="30" rx="15" fill="#875041"/>
<path d="M17.7659 16.9815L17.4117 17.3545C17.4117 17.3545 16.5697 18.241 14.2713 15.8213C11.973 13.4015 12.815 12.5151 12.815 12.5151L13.0381 12.2802C13.5876 11.7016 13.6394 10.7728 13.16 10.0946L12.1792 8.70748C11.5858 7.86817 10.4391 7.75729 9.75891 8.47339L8.53811 9.75866C8.20084 10.1137 7.97484 10.574 8.00225 11.0846C8.07236 12.3909 8.63056 15.2015 11.7453 18.4807C15.0483 21.9582 18.1475 22.0964 19.4149 21.9713C19.8157 21.9317 20.1644 21.7155 20.4453 21.4198L21.5502 20.2566C22.296 19.4714 22.0857 18.1252 21.1315 17.576L19.6455 16.7207C19.019 16.36 18.2556 16.466 17.7659 16.9815Z" fill="#F8F0E5"/>
</svg>
