<svg width="25" height="25" viewBox="0 0 25 25" fill="none" xmlns="http://www.w3.org/2000/svg">
<rect x="0.5" y="0.5" width="24" height="24" rx="12" stroke="#875041"/>
<path d="M11.23 15.22C11.23 14.716 11.308 14.284 11.464 13.924C11.632 13.564 11.836 13.246 12.076 12.97C12.328 12.694 12.592 12.436 12.868 12.196C13.156 11.956 13.426 11.716 13.678 11.476C13.93 11.224 14.134 10.954 14.29 10.666C14.446 10.366 14.524 10.018 14.524 9.622C14.524 8.974 14.272 8.446 13.768 8.038C13.264 7.63 12.55 7.426 11.626 7.426C10.858 7.426 10.192 7.552 9.628 7.804C9.064 8.044 8.584 8.404 8.188 8.884L7.234 8.164C7.714 7.564 8.332 7.102 9.088 6.778C9.844 6.454 10.72 6.292 11.716 6.292C12.556 6.292 13.282 6.418 13.894 6.67C14.518 6.922 14.998 7.282 15.334 7.75C15.682 8.218 15.856 8.776 15.856 9.424C15.856 9.94 15.772 10.384 15.604 10.756C15.448 11.116 15.244 11.44 14.992 11.728C14.752 12.004 14.488 12.268 14.2 12.52C13.924 12.76 13.66 13.006 13.408 13.258C13.156 13.51 12.952 13.792 12.796 14.104C12.64 14.416 12.562 14.788 12.562 15.22H11.23ZM11.896 19.09C11.644 19.09 11.422 19 11.23 18.82C11.05 18.628 10.96 18.406 10.96 18.154C10.96 17.89 11.05 17.674 11.23 17.506C11.422 17.326 11.644 17.236 11.896 17.236C12.172 17.236 12.4 17.326 12.58 17.506C12.76 17.674 12.85 17.89 12.85 18.154C12.85 18.406 12.76 18.628 12.58 18.82C12.4 19 12.172 19.09 11.896 19.09Z" fill="#875041"/>
</svg>
