<svg width="50" height="50" viewBox="0 0 50 50" fill="none" xmlns="http://www.w3.org/2000/svg">
<rect x="0.5" y="0.5" width="49" height="49" rx="24.5" stroke="#875041"/>
<path d="M24.4697 34.0303C24.7626 34.3232 25.2374 34.3232 25.5303 34.0303L30.3033 29.2574C30.5962 28.9645 30.5962 28.4896 30.3033 28.1967C30.0104 27.9038 29.5355 27.9038 29.2426 28.1967L25 32.4393L20.7574 28.1967C20.4645 27.9038 19.9896 27.9038 19.6967 28.1967C19.4038 28.4896 19.4038 28.9645 19.6967 29.2574L24.4697 34.0303ZM25 13.5H24.25L24.25 33.5H25H25.75L25.75 13.5H25Z" fill="#875041"/>
<line x1="15" y1="36" x2="35" y2="36" stroke="#875041"/>
</svg>
