<svg width="30" height="30" viewBox="0 0 30 30" fill="none" xmlns="http://www.w3.org/2000/svg">
<rect x="0.25" y="0.25" width="29.5" height="29.5" rx="14.75" fill="#374855"/>
<rect x="0.25" y="0.25" width="29.5" height="29.5" rx="14.75" stroke="#374532" stroke-width="0.5"/>
<path d="M14.0039 9.00413C11.3031 9.33233 8.40464 10.8903 5.7355 13.4567C5.06722 14.0972 5 14.1921 5 14.4808C5 14.7655 5.06722 14.8604 5.69595 15.4694C8.27019 17.9566 11.058 19.5027 13.7587 19.9259C14.3796 20.0247 15.8743 20.0247 16.507 19.9259C19.1761 19.5027 21.9204 17.9883 24.5302 15.4852C25.1787 14.8644 25.2459 14.7695 25.2459 14.4808C25.2459 14.1921 25.1787 14.0972 24.5104 13.4567C21.8215 10.8745 18.927 9.32442 16.2064 9.00413C15.5975 8.93295 14.597 8.93295 14.0039 9.00413ZM15.7556 9.59727C17.0724 9.66054 18.7095 10.1865 20.2082 11.0208C21.5803 11.78 23.1146 12.9465 24.2376 14.0854L24.633 14.4848L24.0755 15.0305C21.956 17.0946 19.5557 18.5458 17.3255 19.1113C16.5821 19.3011 15.9099 19.3841 15.1427 19.3841C14.2333 19.3881 13.7548 19.3248 12.8374 19.0836C10.6269 18.5102 8.25437 17.0669 6.17047 15.0265L5.61291 14.4808L6.17047 13.9312C8.80797 11.3411 11.92 9.73567 14.6089 9.58145C14.8818 9.56564 15.1586 9.55773 15.2218 9.56564C15.289 9.56959 15.5263 9.58541 15.7556 9.59727Z" fill="#F8F0E5"/>
<path d="M14.2759 10.1943C12.5281 10.5383 11.1639 11.9144 10.8317 13.6622C10.7566 14.0695 10.7566 14.892 10.8317 15.2993C11.1639 17.059 12.5439 18.439 14.3036 18.7712C14.7109 18.8463 15.5334 18.8463 15.9407 18.7712C17.7003 18.439 19.0804 17.059 19.4125 15.2993C19.4877 14.892 19.4877 14.0695 19.4125 13.6622C19.0804 11.9026 17.7003 10.5225 15.9407 10.1904C15.5532 10.1152 14.6516 10.1192 14.2759 10.1943ZM15.9011 10.8191C17.0558 11.0643 18.0997 11.9263 18.5663 13.0177C18.8629 13.7176 18.942 14.6034 18.764 15.327C18.507 16.3867 17.819 17.2725 16.8502 17.7826C15.7825 18.3441 14.6081 18.3678 13.5207 17.8459C13.058 17.6244 12.7337 17.3872 12.4016 17.0352C12.0892 16.6991 11.9468 16.4895 11.7373 16.0467C11.4882 15.5168 11.3932 15.0858 11.3932 14.4808C11.3932 13.4289 11.7847 12.5115 12.5439 11.7879C13.4534 10.918 14.6832 10.5621 15.9011 10.8191Z" fill="#F8F0E5"/>
<path d="M14.6172 13.2985C13.8105 13.6109 13.5891 14.7616 14.2139 15.3903C14.8466 16.0191 16.0012 15.7937 16.3057 14.9751C16.4915 14.4848 16.3808 13.9233 16.0328 13.5714C15.6809 13.2234 15.1036 13.1127 14.6172 13.2985ZM15.3843 13.8838C15.8075 14.0775 15.9103 14.6114 15.5821 14.9396C15.0087 15.5129 14.115 14.7063 14.6172 14.0657C14.7121 13.9431 14.9771 13.8086 15.1234 13.8086C15.1787 13.8086 15.2934 13.8442 15.3843 13.8838Z" fill="#F8F0E5"/>
</svg>
