<svg width="40" height="40" viewBox="0 0 40 40" fill="none" xmlns="http://www.w3.org/2000/svg">
<path d="M15.7645 3.25787L12.4989 6.5235V4.06256C12.4911 1.38287 12.4911 1.38287 12.0536 1.25787C11.7411 1.16412 11.3505 1.336 11.2489 1.60944C11.1942 1.74225 11.1708 3.00787 11.1864 5.12506L11.2098 8.42975L11.3895 8.60944L11.5692 8.78912L14.7489 8.81256C16.4989 8.82819 18.0458 8.81256 18.1864 8.78912C18.5614 8.71881 18.7489 8.50006 18.7489 8.12506C18.7489 7.91412 18.702 7.7735 18.577 7.65631C18.413 7.50787 18.3114 7.50006 15.9442 7.50006H13.4755L16.7411 4.23444C19.8817 1.09381 19.9989 0.960999 19.9989 0.679749C19.9989 0.273499 19.7255 6.19888e-05 19.3192 6.19888e-05C19.038 6.19888e-05 18.9051 0.117249 15.7645 3.25787Z" fill="#F8F0E5"/>
<path d="M24.9375 3.90625C23.3516 4.32032 22.0156 5.54688 21.4766 7.07813C20.8359 8.90625 21.2891 10.9141 22.6484 12.2656C22.9766 12.5938 23.3438 12.9219 23.4609 13.0078L23.6797 13.1641L23.6562 17.3984L23.6328 21.625L23.0703 20.9375C22.5 20.2422 22.5 20.2422 22.5 19.7734C22.5 18.4453 21.7891 17.0234 20.6719 16.1016C18.5234 14.3359 15.1094 14.7422 13.4766 16.9609C12.7656 17.9219 12.4688 18.8359 12.4688 20.0391C12.4688 21.75 13.2734 23.2344 14.7031 24.1875C15.5234 24.7344 16.1875 24.9375 17.2656 24.9844C17.7578 25 18.3125 24.9766 18.4922 24.9375L18.8203 24.8594L19.2891 25.8125C19.5469 26.3359 20.1484 27.7188 20.625 28.875C22.0625 32.3438 23.0703 34.2188 24.3281 35.7344C25.1016 36.6719 25.3984 37.4844 25.5078 38.9375C25.5547 39.5313 25.6016 39.7422 25.7109 39.8516C25.8516 39.9922 26.0859 40 31.1719 40H36.4922L36.6797 39.8047C36.8359 39.6484 36.875 39.5391 36.875 39.1953C36.875 37.9688 37.2969 36.6172 38.2656 34.7656C39.2812 32.8125 39.5 32.3516 39.7422 31.6328L39.9609 30.9766V26.0938V21.2109L39.75 20.8125C39.1328 19.6406 37.6953 19.1484 36.375 19.6563C36.2734 19.6953 36.25 19.6484 36.25 19.3672C36.25 18.3438 35.6016 17.5234 34.5391 17.1875C33.9531 17 33.4453 16.9922 32.9219 17.1484C32.7109 17.2109 32.5312 17.2656 32.5312 17.2656C32.5234 17.2656 32.5 17.0234 32.4844 16.7266C32.4375 16.0938 32.2031 15.6172 31.7422 15.2422C31.1172 14.7266 29.9688 14.4922 29.1641 14.7109L28.75 14.8203V13.9922V13.1641L29.2344 12.8125C30.5859 11.8281 31.3203 10.2188 31.2266 8.48438C31.1484 7.09375 30.7422 6.19532 29.7344 5.19532C29.0312 4.49219 28.3047 4.07813 27.4219 3.875C26.7266 3.71094 25.6406 3.72657 24.9375 3.90625ZM27.4531 5.46875C27.6953 5.5625 28.0859 5.78125 28.3203 5.96094C29.9219 7.17969 30.2109 9.32813 28.9922 10.9297L28.7891 11.2031L28.75 9.5625C28.7109 8.07032 28.6953 7.89063 28.5312 7.53125C28.3047 7.03907 27.9688 6.70313 27.4609 6.46875C27.125 6.3125 26.9453 6.28907 26.2109 6.28907C25.4297 6.28907 25.3125 6.30469 24.9062 6.50782C24.6562 6.63282 24.3516 6.85938 24.2188 7.01563C23.7969 7.52344 23.7344 7.85157 23.6797 9.60938L23.6328 11.2109L23.3359 10.7656C22.5938 9.64063 22.5078 8.39844 23.0859 7.21875C23.8672 5.625 25.7969 4.85157 27.4531 5.46875ZM26.9062 7.6875C27.4297 7.90625 27.4219 7.83594 27.4219 12.7188C27.4219 17.0234 27.4219 17.0938 27.5859 17.2969C27.7109 17.4609 27.8125 17.5 28.0859 17.5C28.5078 17.5 28.75 17.2813 28.75 16.9141C28.75 16.7734 28.8281 16.5469 28.9297 16.3984C29.3125 15.8203 30.3984 15.8047 30.9219 16.3672L31.1719 16.6406V18.1172C31.1719 19.4844 31.1797 19.6016 31.3359 19.7969C31.4609 19.9609 31.5625 20 31.8281 20C32.2422 20 32.4609 19.7813 32.5234 19.3125C32.6172 18.5313 33.4688 18.1484 34.2734 18.5156C34.8672 18.7813 34.9219 18.9609 34.9219 20.6328C34.9219 21.9844 34.9297 22.1016 35.0859 22.2969C35.2109 22.4609 35.3125 22.5 35.5781 22.5C35.9922 22.5 36.1641 22.3281 36.2578 21.8281C36.3516 21.3438 36.5 21.1328 36.875 20.9375C37.4766 20.6328 38.2266 20.8438 38.5312 21.4063C38.6719 21.6641 38.6719 21.9063 38.6562 26.2109L38.6328 30.7422L38.4219 31.3672C38.2969 31.7109 37.8672 32.625 37.4609 33.3984C36.2578 35.6563 35.7734 36.9063 35.6484 38.0625C35.625 38.3047 35.5859 38.5313 35.5547 38.5781C35.5312 38.6172 33.7422 38.6719 31.1641 38.6953L26.8203 38.7422L26.7734 38.2188C26.6719 37.0547 26.1797 35.8594 25.4297 34.9609C24.2656 33.5547 23.2891 31.7578 21.9531 28.5156C20.1328 24.1016 19.2578 22.7188 17.1172 20.8594C16.2734 20.1328 16.0703 19.6016 16.4531 19.1484C16.75 18.7891 17.1484 18.7109 17.8828 18.8594C19.625 19.2109 21.3047 20.6641 23.4922 23.7031C23.9766 24.3672 23.9844 24.375 24.3203 24.375C24.5703 24.375 24.7031 24.3281 24.8281 24.1953L25 24.0156L25.0156 16.1172C25.0391 8.23438 25.0391 8.21094 25.2031 7.99219C25.2891 7.875 25.4531 7.72657 25.5547 7.67969C25.8047 7.54688 26.5859 7.55469 26.9062 7.6875ZM18.3047 16.6016C19.2188 16.8359 19.9297 17.3359 20.4219 18.0781C20.7578 18.5938 20.7812 18.7422 20.4844 18.5234C19.6562 17.9375 18.3672 17.4922 17.4219 17.4766C16.2734 17.4609 15.5078 17.8594 15.1562 18.6797C15.0156 19.0156 14.9922 19.1953 15.0156 19.6797C15.0469 20.4766 15.3281 21.0469 15.9688 21.6484C17.4141 23.0078 17.8125 23.3906 17.8125 23.4531C17.8125 23.5703 16.9688 23.5156 16.4922 23.3672C16.2344 23.2891 15.8672 23.1328 15.6875 23.0234C15.1797 22.7266 14.5547 22.0234 14.2734 21.4297C14.0391 20.9297 14.0234 20.8516 14.0234 20C14.0234 19.1484 14.0391 19.0703 14.2734 18.5703C15 17.0313 16.7266 16.1875 18.3047 16.6016Z" fill="#F8F0E5"/>
<path d="M1.35938 13.9141C1.14062 14.1563 1.16406 14.6641 1.39844 14.8516C1.57031 14.9922 1.74219 15 4.04688 15H6.52344L3.25781 18.2656L0 21.5313V21.8594C0 22.2969 0.203125 22.5 0.648438 22.5L0.976562 22.5078L4.19531 19.2656L7.41406 16.0234L7.4375 18.4766C7.46094 20.7109 7.47656 20.9375 7.60156 21.0781C7.86719 21.3672 8.5 21.3359 8.67188 21.0156C8.71875 20.9219 8.75 19.5391 8.75 17.4688C8.75 14.1641 8.74219 14.0547 8.59375 13.9063C8.44531 13.7578 8.33594 13.75 4.97656 13.75C1.5625 13.75 1.50781 13.75 1.35938 13.9141Z" fill="#F8F0E5"/>
</svg>
