<svg width="57" height="41" viewBox="0 0 57 41" fill="none" xmlns="http://www.w3.org/2000/svg">
<path d="M26.1653 0.0397339C24.8486 0.317352 23.9999 0.76947 23.1115 1.65784C22.3659 2.40344 22.009 2.95074 21.7234 3.77567C20.9382 6.03626 21.6441 8.5824 23.4684 10.0895C23.9364 10.4702 24.8882 11.0175 25.0945 11.0175C25.15 11.0175 25.1738 12.826 25.1738 16.5064L25.1659 22.0032L24.9914 21.7652C24.3172 20.861 23.0401 19.5919 22.1914 18.9811C21.5648 18.529 20.5892 18.0531 19.9387 17.8786C19.1931 17.6724 18.0985 17.6803 17.6306 17.8945C17.1388 18.1166 16.7263 18.4894 16.528 18.9177C16.3852 19.2112 16.3614 19.3777 16.3773 19.925C16.417 20.7975 16.6867 21.3448 17.3847 22.0032C19.8356 24.2796 20.2877 24.9856 22.009 29.1102C22.4373 30.1572 22.9608 31.3708 23.1591 31.8229C23.8888 33.441 24.9596 35.2257 25.8004 36.2013C26.5698 37.1135 26.9426 38.0891 27.0457 39.493C27.0854 40.0959 27.133 40.2862 27.2599 40.4211L27.4185 40.6035H32.8281H38.2377L38.3963 40.4211C38.5311 40.2783 38.5867 40.0721 38.6501 39.3582C38.7929 37.9225 39.007 37.3276 40.2841 34.7736C41.0218 33.2982 41.5056 32.2433 41.6166 31.8388C41.7911 31.2121 41.7911 31.1645 41.7753 25.7788L41.7674 20.3613L41.5215 19.8616C41.2359 19.2905 40.9504 19.0129 40.3237 18.7194C39.9589 18.5449 39.7764 18.5131 39.1736 18.5131C38.6422 18.5131 38.3963 18.5528 38.2059 18.6559L37.9442 18.7987V18.2911C37.9442 16.6412 36.0167 15.5466 34.2638 16.2208C34.1527 16.2684 34.1369 16.1098 34.1369 14.6344C34.1369 13.6033 34.1686 13.0005 34.2162 13.0005C34.2558 13.0005 34.5652 12.7467 34.8904 12.4373C36.1198 11.2713 36.6909 9.92289 36.683 8.20167C36.6751 5.53655 34.8745 3.26802 32.2967 2.67313C31.9952 2.60174 31.8763 2.52242 31.7493 2.32412C31.6621 2.18135 31.321 1.80855 30.9879 1.49921C30.2819 0.840858 29.2508 0.293556 28.3862 0.111122C27.8786 0.00800705 26.546 -0.0395851 26.1653 0.0397339ZM28.1483 1.45955C29.227 1.73716 30.1392 2.37965 30.7579 3.30768L31.1069 3.83912L31.6859 3.9343C33.2564 4.18019 34.6445 5.38584 35.1363 6.92463C35.5805 8.32858 35.279 9.93876 34.3748 11.0175L34.1448 11.2951L34.1369 9.8753C34.1369 8.16201 34.0813 7.94785 33.542 7.40055C32.7884 6.64701 31.4955 6.38526 30.4644 6.78186C30.3454 6.82152 30.3295 6.75806 30.3295 6.28215C30.3295 5.44136 30.155 4.95752 29.6712 4.48161C29.1635 3.9819 28.6718 3.79946 27.7993 3.79946C26.5936 3.79946 25.9115 4.16433 25.4752 5.04477L25.2135 5.58414L25.1738 7.58298L25.1341 9.58975L24.7375 9.32007C22.4135 7.75748 22.0962 4.56886 24.0633 2.60967C25.15 1.53886 26.7205 1.09468 28.1483 1.45955ZM28.5052 5.26686C28.997 5.52068 28.9811 5.30652 28.9811 11.4934C28.9811 17.6962 28.9732 17.5772 29.4491 17.7438C29.7426 17.8469 30.1312 17.7358 30.2502 17.5217C30.2978 17.4265 30.3295 15.729 30.3375 13.1036C30.3375 10.0181 30.3613 8.7569 30.4327 8.55861C30.5675 8.16994 31.0989 7.90026 31.6145 7.95578C32.0825 8.00337 32.5267 8.2096 32.6536 8.43169C32.725 8.55861 32.7567 9.8991 32.7884 13.6588L32.8281 18.7273L33.0185 18.878C33.2643 19.0763 33.772 19.0763 33.9703 18.878C34.0496 18.7987 34.1369 18.5687 34.1686 18.3624C34.2796 17.6644 34.8349 17.2837 35.6043 17.3948C35.866 17.4344 36.0643 17.5296 36.2626 17.72L36.5561 17.9817L36.5957 19.6236C36.6354 21.2259 36.6354 21.2655 36.8258 21.4162C37.0717 21.6145 37.5793 21.6145 37.7776 21.4162C37.8649 21.329 37.96 21.091 37.9918 20.8769C38.0632 20.4009 38.4756 19.9409 38.9198 19.8616C39.3878 19.7743 39.7685 19.8854 40.0858 20.2026L40.3793 20.4961L40.4269 23.3833C40.5062 27.4365 40.4903 30.2365 40.4031 30.8711C40.292 31.6167 40.0065 32.3861 39.4433 33.4569C37.96 36.233 37.5793 37.1928 37.381 38.565L37.2779 39.2551H34.8507C33.5102 39.2551 31.5035 39.2789 30.3851 39.3106L28.3466 39.3582V38.9695C28.3466 38.4064 28.0769 37.3594 27.7596 36.701C27.601 36.3837 27.2123 35.7809 26.8792 35.3685C25.6576 33.8376 24.8882 32.394 23.3574 28.7612C21.4696 24.2876 20.6923 23.0581 18.5269 21.1783C17.9637 20.6865 17.6385 20.2264 17.6385 19.9012C17.6385 19.3381 18.2254 18.9811 18.979 19.0763C20.8112 19.3063 22.699 20.8372 24.8486 23.8513C25.1579 24.2876 25.4752 24.6683 25.5387 24.6921C25.8163 24.7952 26.1811 24.7397 26.3477 24.5573L26.5222 24.3748L26.5381 15.0866L26.5619 5.79037L26.7285 5.56828C26.8157 5.4493 26.9823 5.29859 27.0854 5.251C27.3551 5.10822 28.2276 5.12409 28.5052 5.26686Z" fill="#F8F0E5"/>
<path d="M50.81 1.44376C50.691 1.57068 50.6355 1.72931 50.6355 1.93554C50.6355 2.23696 50.7069 2.31627 52.674 4.29132L54.7125 6.33775H47.7721H40.8237L40.6571 6.52019C40.4826 6.70262 40.4271 7.05956 40.5302 7.32924C40.673 7.68618 40.6096 7.68618 47.8752 7.68618H54.7204L52.674 9.73261C50.8338 11.5807 50.6355 11.7949 50.6355 12.0329C50.6355 12.1756 50.6672 12.366 50.7148 12.4453C50.81 12.6198 51.1987 12.7626 51.4445 12.7071C51.5477 12.6833 52.8326 11.4618 54.308 9.99436L56.981 7.32924V6.97231V6.61537L54.3 3.94232C51.6666 1.30099 51.619 1.26133 51.3018 1.26133C51.0717 1.26133 50.9369 1.30892 50.81 1.44376Z" fill="#F8F0E5"/>
<path d="M6.17243 1.51359C6.29141 1.6405 6.34693 1.79914 6.34693 2.00537C6.34693 2.30678 6.27555 2.3861 4.30843 4.36114L2.26993 6.40758H9.21035H16.1587L16.3253 6.59001C16.4998 6.77245 16.5553 7.12938 16.4522 7.39907C16.3094 7.756 16.3729 7.756 9.10724 7.756H2.262L4.30843 9.80243C6.14864 11.6506 6.34693 11.8647 6.34693 12.1027C6.34693 12.2455 6.31521 12.4358 6.26762 12.5151C6.17243 12.6896 5.78377 12.8324 5.53788 12.7769C5.43476 12.7531 4.1498 11.5316 2.67446 10.0642L0.00140762 7.39907V7.04213V6.68519L2.68239 4.01214C5.31579 1.37081 5.36338 1.33115 5.68065 1.33115C5.91068 1.33115 6.04552 1.37875 6.17243 1.51359Z" fill="#F8F0E5"/>
</svg>
