<svg width="149" height="32" viewBox="0 0 149 32" fill="none" xmlns="http://www.w3.org/2000/svg">
<path d="M31.5992 17.5201C31.5726 19.3867 31.2126 21.1467 30.5192 22.8001C29.8259 24.4267 28.8392 25.8667 27.5592 27.1201C26.2792 28.3734 24.7192 29.3601 22.8792 30.0801C21.0659 30.7734 18.9859 31.1201 16.6392 31.1201C14.2659 31.1201 12.0659 30.7601 10.0392 30.0401C8.01255 29.3201 6.23922 28.2934 4.71922 26.9601C3.22589 25.6001 2.06589 23.9601 1.23922 22.0401C0.412552 20.1201 -0.000781178 17.9601 -0.000781178 15.5601C-0.000781178 13.1601 0.412552 11.0001 1.23922 9.08006C2.09255 7.16006 3.27922 5.53339 4.79922 4.20006C6.31922 2.84006 8.10589 1.80006 10.1592 1.08006C12.2126 0.360056 14.4659 5.62668e-05 16.9192 5.62668e-05C19.9859 5.62668e-05 22.6659 0.506724 24.9592 1.52006C27.2792 2.50672 29.1459 3.86672 30.5592 5.60006C31.9726 7.33339 32.8392 9.32006 33.1592 11.5601H27.7992C27.5059 10.1467 26.8659 8.92006 25.8792 7.88006C24.9192 6.84006 23.6792 6.04006 22.1592 5.48006C20.6392 4.92006 18.8792 4.64006 16.8792 4.64006C14.5326 4.64006 12.4926 5.08006 10.7592 5.96006C9.05255 6.81339 7.71922 8.05339 6.75922 9.68006C5.82589 11.3067 5.35922 13.2667 5.35922 15.5601C5.35922 17.8534 5.83922 19.8267 6.79922 21.4801C7.78589 23.1334 9.17255 24.4001 10.9592 25.2801C12.7459 26.1601 14.8526 26.6001 17.2792 26.6001C19.6259 26.6001 21.6792 26.2001 23.4392 25.4001C25.1992 24.6001 26.5859 23.4934 27.5992 22.0801C28.6126 20.6401 29.1592 18.9734 29.2392 17.0801L31.5992 17.5201ZM18.3192 19.8001V15.8001H33.4792V30.5601H29.5592L28.9192 18.1201L30.1592 19.8001H18.3192ZM42.8639 23.6801V19.3201H63.8239V23.6801H42.8639ZM56.7839 0.560056L71.1839 30.5601H65.5439L52.4639 2.56006H54.5039L41.4239 30.5601H35.7839L50.1839 0.560056H56.7839ZM78.0408 17.6801C78.0408 19.4667 78.4008 21.0134 79.1208 22.3201C79.8408 23.6267 80.8674 24.6401 82.2008 25.3601C83.5608 26.0534 85.1741 26.4001 87.0408 26.4001C88.9341 26.4001 90.5474 26.0534 91.8808 25.3601C93.2141 24.6401 94.2408 23.6267 94.9608 22.3201C95.6808 21.0134 96.0408 19.4667 96.0408 17.6801V0.560056H101.321V17.8801C101.321 20.5201 100.721 22.8401 99.5208 24.8401C98.3208 26.8134 96.6541 28.3601 94.5208 29.4801C92.3874 30.5734 89.8941 31.1201 87.0408 31.1201C84.2141 31.1201 81.7208 30.5734 79.5608 29.4801C77.4274 28.3601 75.7608 26.8134 74.5608 24.8401C73.3608 22.8401 72.7608 20.5201 72.7608 17.8801V0.560056H78.0408V17.6801ZM121.213 0.560056C124.626 0.560056 127.613 1.18672 130.173 2.44006C132.76 3.69339 134.773 5.45339 136.213 7.72006C137.653 9.96006 138.373 12.5734 138.373 15.5601C138.373 18.5467 137.653 21.1734 136.213 23.4401C134.773 25.6801 132.76 27.4267 130.173 28.6801C127.613 29.9334 124.626 30.5601 121.213 30.5601H107.653V0.560056H121.213ZM112.933 28.7201L110.013 25.9201H121.573C123.866 25.9201 125.866 25.4934 127.573 24.6401C129.306 23.7601 130.64 22.5467 131.573 21.0001C132.533 19.4267 133.013 17.6134 133.013 15.5601C133.013 13.4801 132.533 11.6667 131.573 10.1201C130.64 8.57339 129.306 7.37339 127.573 6.52006C125.866 5.64006 123.866 5.20006 121.573 5.20006H110.013L112.933 2.40006V28.7201ZM143.512 0.560056H148.792V30.5601H143.512V0.560056Z" fill="#875041"/>
</svg>
