<svg width="1285" height="317" viewBox="0 0 1285 317" fill="none" xmlns="http://www.w3.org/2000/svg">
<path d="M175.7 -2.08616e-05V29.05H17.8499L32.8999 14.35V262.5H-9.56953e-05V-2.08616e-05H175.7ZM190.671 197.4V169.4H375.471V197.4H190.671ZM303.721 -2.08616e-05L432.871 262.5H397.171L275.721 11.2H293.221L171.421 262.5H135.721L264.871 -2.08616e-05H303.721ZM484.044 262.5L524.644 193.2H525.344L638.744 -2.08616e-05H675.144L520.094 262.5H484.044ZM527.094 219.1L397.244 -2.08616e-05H433.994L547.394 191.45L527.094 219.1ZM653.876 316.75V233.45H696.226L713.026 233.8H918.126L926.876 233.45H985.326V316.75H954.876V262.5H684.326V316.75H653.876ZM713.026 -2.08616e-05H938.776V249.2H905.876V14L920.926 29.05H731.226L745.226 18.55C746.626 32.55 747.56 46.55 748.026 60.55C748.726 74.55 749.076 87.7333 749.076 100.1C749.076 130.433 747.093 156.567 743.126 178.5C739.16 200.2 733.443 216.883 725.976 228.55C718.51 240.217 709.526 246.05 699.026 246.05L685.376 234.15C696.576 222.017 704.743 204.517 709.876 181.65C715.243 158.55 717.926 129.267 717.926 93.8C717.926 79.1 717.46 63.7 716.526 47.6C715.593 31.2667 714.426 15.4 713.026 -2.08616e-05ZM1024.02 262.5V-2.08616e-05H1056.22V249.2L1041.87 247.8L1242.07 -2.08616e-05H1284.77V262.5H1252.57V12.25L1266.92 13.65L1066.02 262.5H1024.02Z" fill="#F8F0E5"/>
</svg>
