<svg width="445" height="160" viewBox="0 0 445 160" fill="none" xmlns="http://www.w3.org/2000/svg">
<path d="M3.91077 69.1565C6.237 70.0026 9.46368 71.0025 11.0395 71.2333L13.9661 71.7717V115.847V159.999H15.842H17.718V116.924V73.7717L20.4945 74.0793L23.346 74.387L23.4961 114.232C23.5711 139.769 23.8712 154.23 24.3215 154.538C24.7717 154.768 59.7401 154.999 102.062 154.922L179.053 154.845V157.461C179.053 159.461 179.353 159.999 180.553 159.999C181.754 159.999 182.054 159.461 182.054 157.691V155.384H197.437L212.82 155.384V157.691C212.82 159.461 213.196 159.999 214.246 159.999C215.372 159.999 215.822 159.384 215.972 157.461L216.197 154.999L288.76 154.922L361.398 154.845V157.461C361.398 159.691 361.623 159.999 363.274 159.999C364.85 159.999 365.15 159.614 365.15 157.691V155.384H380.533H395.916V157.691C395.916 159.461 396.217 159.999 397.417 159.999C398.843 159.999 398.918 159.461 398.918 146.153V132.308H401.92H404.921V146.153V159.922L407.548 159.845C410.324 159.768 411.074 158.845 408.823 158.23C407.623 157.922 407.623 157.845 408.823 157.768C410.024 157.691 410.174 156.691 410.174 148.846V140H422.931C432.611 140 435.687 139.769 435.687 139C435.687 138.538 437.863 112.462 440.49 81.156C443.116 49.8495 445.142 24.0813 444.992 23.9275C444.842 23.7736 437.038 22.8506 427.658 22.0045L410.549 20.3892L410.324 14.774C410.099 9.54343 410.024 9.23575 408.298 9.23575C407.247 9.23575 406.422 9.77419 406.197 10.5434C405.897 11.851 405.822 11.851 405.747 10.5434C405.747 9.8511 405.371 9.23575 404.921 9.23575C404.546 9.23575 404.396 9.8511 404.696 10.5434C405.146 11.7741 404.996 11.7741 403.57 10.4665C401.394 8.54347 401.469 9.77419 403.57 12.2356C404.546 13.3125 404.696 13.6971 403.946 13.1587C402.52 12.0049 402.22 13.0817 403.645 14.4663C404.096 15.0047 404.621 16.8508 404.621 18.5431L404.771 21.6199L402.82 19.8507C401.169 18.3123 401.019 18.2354 401.469 19.543C401.995 21.0045 401.92 21.0045 400.419 19.6199C398.618 17.9277 398.468 17.3893 400.044 18.0046C400.644 18.2354 401.169 18.0046 401.169 17.5431C401.169 17.0816 401.92 17.3123 402.82 18.1585C404.396 19.4661 404.396 19.3892 402.745 17.4662C400.944 15.3893 399.894 14.6971 400.794 16.1586C401.019 16.5432 400.944 16.9277 400.494 16.9277C399.218 16.9277 398.693 15.2355 399.743 14.5432C400.419 14.1586 401.394 14.4663 402.52 15.6201C403.495 16.5432 404.096 16.7739 403.796 16.1586C403.57 15.5432 402.445 14.3125 401.394 13.5433C400.344 12.6971 399.668 12.4664 399.969 12.9279C400.269 13.4664 400.194 13.851 399.818 13.851C399.368 13.851 399.143 13.0048 399.218 12.0049C399.293 10.2357 399.368 10.2357 400.644 11.3126C401.319 12.0049 402.145 12.3895 402.37 12.1587C402.595 11.9279 401.92 11.0049 400.869 10.1588C398.393 8.15886 398.393 7.9281 401.169 8.15886C403.12 8.3127 403.345 8.15886 402.595 7.23582C401.544 5.92818 400.119 5.77434 400.869 7.08199C401.244 7.69734 400.944 7.62042 400.119 6.92815C399.218 6.23587 399.068 5.69742 399.593 5.54358C400.269 5.31282 400.269 4.92822 399.668 4.23595C399.218 3.69751 398.918 2.9283 398.993 2.62062C399.293 0.851456 398.768 0.00534058 397.417 0.00534058C396.442 0.00534058 395.916 0.543777 395.916 1.54375C395.916 3.08214 395.391 3.08214 259.345 3.08214C123.298 3.08214 122.773 3.08214 122.773 1.54375C122.773 0.543777 122.248 0.00534058 121.272 0.00534058C119.922 0.00534058 119.772 0.543777 119.772 5.77434V11.5434H117.145C114.594 11.5434 114.519 11.4664 114.519 8.62039C114.519 3.77443 113.618 0.00534058 112.568 0.00534058C111.967 0.00534058 111.517 0.697617 111.517 1.54375C111.517 3.08214 110.992 3.08214 68.7448 3.08214H25.9724V1.46683C25.9724 0.389938 25.5971 0.00534058 24.6216 0.15918C23.421 0.466858 23.1208 2.62062 24.0964 5.15898C24.3215 5.92818 33.7764 6.15895 67.6192 6.15895H110.767V8.85115V11.5434H67.6192C31.9005 11.5434 24.3215 11.6972 24.0213 12.6202C23.7962 13.1587 23.5711 14.6201 23.421 15.8509C23.2709 17.4662 22.7457 18.0816 21.6951 18.1585C18.8436 18.3123 18.4684 19.1584 18.4684 25.389C18.4684 30.6964 18.6935 31.6195 19.9692 32.3118C20.7196 32.7733 21.7701 33.004 22.2954 32.9271C22.7457 32.7733 23.1959 33.4656 23.346 34.3886C23.421 35.927 23.1208 36.1578 20.5695 36.1578H17.718V18.0816V0.00534058H15.842H13.9661V21.0814V42.2344L7.13748 54.3878C3.3855 61.0799 0.158813 66.7719 0.00872803 67.0027C-0.141357 67.3104 1.65961 68.2334 3.91077 69.1565ZM9.98895 51.1572L13.9661 44.2344V57.4646C13.9661 64.772 13.6659 70.7718 13.3657 70.7718C12.1651 70.7718 3.98581 68.3873 2.6351 67.6181C0.984253 66.7719 0.609039 67.5411 9.98895 51.1572ZM15.9921 40.6191C16.8926 39.6192 18.3183 39.2346 21.47 39.2346H25.8223L26.3475 31.6195C26.6477 27.3889 26.6477 21.8506 26.3475 19.3123L25.8223 14.6201H210.869L395.916 14.6201V26.3889C395.916 33.3117 396.217 38.4654 396.667 38.9269C397.192 39.4653 397.342 50.2341 397.267 69.618L397.042 99.6168L393.29 100.155C389.238 100.771 384.285 102.617 383.61 103.77C383.31 104.155 386.086 109.77 389.763 116.308L396.367 128.077L396.067 140.154L395.766 152.307H259.27L122.773 152.307V147.307C122.773 143.538 122.473 142.154 121.648 141.846C120.747 141.461 120.522 139.384 120.522 129.539V117.693L117.295 117.539L114.144 117.462L117.295 117.155C120.372 116.847 120.522 116.693 120.522 114.309C120.522 113.001 120.972 111.386 121.422 110.847C122.173 110.001 122.173 109.77 121.422 109.463C120.822 109.232 120.522 107.309 120.522 103.77V98.463L117.295 98.3092L114.144 98.2322L117.295 97.9246L120.522 97.6169V92.3863C120.522 89.3095 120.897 86.8481 121.422 86.3096C122.173 85.5404 118.121 85.3866 101.987 85.5404L81.5765 85.7712L81.0512 82.6944C79.8506 75.2331 80.601 75.3101 68.2946 82.0021C58.7646 87.0788 57.1887 87.6942 56.5884 86.6173C55.9881 85.5404 53.962 85.3866 40.9802 85.3866H25.9724V78.5407V71.6948L20.3444 71.1564L14.7164 70.6179V56.3108C14.7164 44.1574 14.8665 41.8498 15.9921 40.6191ZM22.7457 23.6198C22.8957 24.6198 22.8957 26.1582 22.7457 27.0812C22.5956 28.0812 22.4455 27.312 22.4455 25.389C22.4455 23.466 22.5956 22.6967 22.7457 23.6198ZM40.9052 93.0786C55.9881 93.0786 57.4889 92.7709 57.4889 90.0018C57.4889 88.7711 78.3498 77.5407 78.8751 78.5407C79.1002 78.8484 79.6255 81.7713 80.1508 85.1558C80.601 88.4634 81.3514 91.6171 81.7266 92.0786C82.2519 92.8478 86.4541 93.0786 98.2353 93.0786L113.994 93.0786L113.543 117.693C113.168 141.461 113.168 142.307 114.594 143.077C115.719 143.769 116.02 144.769 116.02 148.076V152.307H74.3727H32.7259V145.846V139.308L29.4992 139.077L26.3475 138.846L25.9724 123.462C25.7472 115.001 25.6722 104.694 25.8223 100.54L26.0474 93.0786H40.9052ZM39.8546 88.4634C48.259 88.4634 53.7369 88.7711 53.7369 89.2326C53.7369 89.9249 27.6982 90.1556 26.4976 89.4634C25.0719 88.6172 26.9478 88.4634 39.8546 88.4634ZM102.137 88.4634C112.118 88.4634 119.772 88.7711 119.772 89.1557C119.772 89.5403 112.043 89.9249 102.137 89.9249C90.5062 90.0018 84.5031 89.771 84.5031 89.2326C84.5031 88.7711 90.5812 88.4634 102.137 88.4634ZM117.52 137.692C118.496 137.692 119.021 138.231 119.021 139.231C119.021 140.231 118.496 140.769 117.52 140.769C116.545 140.769 116.02 140.231 116.02 139.231C116.02 138.231 116.545 137.692 117.52 137.692ZM117.67 130.923C118.646 130.693 119.021 131.154 119.021 132.616C119.021 134.154 118.646 134.615 117.445 134.615C116.32 134.615 115.945 134.231 116.17 132.923C116.32 131.923 116.995 131.077 117.67 130.923ZM116.47 120.462C116.695 119.77 117.37 119.231 117.971 119.231C118.721 119.231 119.021 120.308 119.021 123.077C119.021 126.385 118.796 126.923 117.52 126.923C116.32 126.923 116.02 126.385 116.02 124.308C116.02 122.847 116.245 121.154 116.47 120.462ZM117.745 112.462C118.646 112.309 119.021 112.693 119.021 113.77C119.021 114.924 118.571 115.385 117.445 115.385C115.569 115.385 115.794 112.847 117.745 112.462ZM116.47 101.232C116.695 100.54 117.37 100.001 117.971 100.001C118.721 100.001 119.021 101.078 119.021 103.847C119.021 107.155 118.796 107.693 117.52 107.693C116.32 107.693 116.02 107.155 116.02 105.078C116.02 103.617 116.245 101.924 116.47 101.232ZM117.745 93.2324C118.646 93.0786 119.021 93.4632 119.021 94.5401C119.021 95.6939 118.571 96.1554 117.445 96.1554C115.569 96.1554 115.794 93.617 117.745 93.2324ZM119.021 144.615C119.471 144.615 119.772 146.384 119.772 148.538C119.772 150.615 119.471 152.23 119.171 151.999C118.346 151.461 118.196 144.615 119.021 144.615ZM178.152 6.15895L233.531 6.15895L233.606 8.85115L233.681 11.5434L178.227 11.5434H122.773V8.85115V6.15895H178.152ZM171.699 153.307C174.7 153.384 172.449 153.538 166.671 153.538C160.893 153.538 158.417 153.461 161.193 153.307C163.97 153.153 168.697 153.153 171.699 153.307ZM252.216 6.15895H267.599V8.85115V11.5434H252.216H236.833V8.85115V6.15895H252.216ZM333.259 6.15895H395.916V8.85115V11.5434H333.259H270.601V8.85115V6.15895H333.259ZM389.163 102.155C391.414 101.463 394.191 100.848 395.316 100.848L397.417 100.771V114.001C397.417 121.231 397.192 127 396.967 126.693C395.541 125.308 384.811 105.617 384.961 104.617C384.961 104.001 386.762 102.924 389.163 102.155ZM398.918 100.771C399.368 100.771 399.668 106.001 399.668 115.001C399.668 124 399.368 129.231 398.918 129.231C398.468 129.231 398.168 124 398.168 115.001C398.168 106.001 398.468 100.771 398.918 100.771ZM398.918 39.2346C399.368 39.2346 399.668 49.6188 399.668 68.8488C399.668 88.0788 399.368 98.463 398.918 98.463C398.468 98.463 398.168 88.0788 398.168 68.8488C398.168 49.6188 398.468 39.2346 398.918 39.2346ZM400.419 30.6195C401.319 30.9272 401.244 30.6964 400.194 29.4657C397.717 26.5428 398.918 26.6197 401.92 29.6196C404.846 32.5425 406.272 35.3116 403.57 32.8502C401.995 31.3118 400.794 31.158 401.619 32.4656C401.995 33.081 401.769 33.1579 400.944 32.8502C399.293 32.2348 399.368 32.5425 401.169 34.2348C402.52 35.5424 402.67 35.5424 402.22 34.3886C401.619 32.6964 402.145 32.6964 403.721 34.4655C404.921 35.8501 404.846 35.927 401.995 35.927C399.143 35.927 399.068 35.8501 399.218 33.081C399.293 30.8503 399.593 30.3118 400.419 30.6195ZM400.119 20.8507C400.569 21.2353 401.319 21.543 401.619 21.466C402.745 21.1584 404.921 22.466 404.921 23.3121C404.921 23.8506 404.621 23.8506 404.021 23.2352C402.895 22.0814 401.619 22.0045 402.295 23.0814C402.97 24.1582 401.694 24.0044 400.344 22.8506C399.818 22.3891 400.494 23.3121 401.995 25.0043C403.495 26.6966 404.696 28.6965 404.696 29.3888C404.696 31.158 404.246 31.158 402.145 29.0811C400.044 27.0812 399.818 25.389 401.92 27.312C402.745 28.0812 403.42 28.5427 403.42 28.3119C403.42 28.1581 402.52 27.1581 401.394 26.0812C400.344 25.0813 399.668 24.6967 399.969 25.1582C400.269 25.6966 400.194 26.1582 399.894 26.1582C399.518 26.1582 399.218 24.7736 399.218 23.0814C399.218 20.7738 399.443 20.2353 400.119 20.8507ZM401.92 127.693C402.745 127.693 403.42 128 403.42 128.462C403.42 128.846 402.745 129.231 401.92 129.231C401.094 129.231 400.419 128.846 400.419 128.462C400.419 128 401.094 127.693 401.92 127.693ZM401.92 41.5422C403.42 41.5422 403.42 42.0806 403.42 84.2328C403.42 126.308 403.42 126.923 401.92 126.923C400.494 126.923 400.419 126.308 400.419 84.2328C400.419 42.0806 400.419 41.5422 401.92 41.5422ZM401.92 39.2346C402.745 39.2346 403.42 39.5422 403.42 40.0038C403.42 40.3884 402.745 40.773 401.92 40.773C401.094 40.773 400.419 40.3884 400.419 40.0038C400.419 39.5422 401.094 39.2346 401.92 39.2346ZM404.921 39.2346C405.446 39.2346 405.672 54.7724 405.672 84.2328C405.672 113.693 405.446 129.231 404.921 129.231C404.396 129.231 404.171 113.693 404.171 84.2328C404.171 54.7724 404.396 39.2346 404.921 39.2346ZM407.698 38.6192C408.448 38.3884 408.673 47.8496 408.673 84.1559C408.673 109.386 408.373 130 408.073 130C407.698 130 407.172 129.769 406.947 129.462C406.647 129.231 406.497 108.693 406.572 84.002C406.722 48.7727 407.022 38.9269 407.698 38.6192ZM412.05 25.389C415.127 25.389 439.814 27.7735 440.115 28.1581C440.415 28.3888 432.461 123.154 431.41 131.692L430.96 135.385H420.604H410.174V80.3868V25.389H412.05ZM427.058 23.6967C441.69 24.9274 442.816 25.1582 443.041 26.5428C443.266 28.5427 434.262 134 433.811 134.462C433.061 135.308 433.586 128.385 437.938 78.1561C440.415 49.8495 442.291 26.4658 442.066 26.2351C441.841 26.0812 434.862 25.312 426.457 24.5428C418.128 23.7736 411.149 23.1583 410.999 23.0814C410.849 23.0814 410.849 22.9275 410.999 22.7737C411.149 22.5429 418.428 23.0044 427.058 23.6967Z" fill="#875041"/>
<path d="M122.023 91.925C122.398 91.6943 122.773 90.6174 122.773 89.5405C122.773 88.5405 122.398 87.6944 122.023 87.6944C121.573 87.6944 121.273 88.7713 121.273 90.0789C121.273 91.3866 121.573 92.2327 122.023 91.925Z" fill="#875041"/>
<path d="M244.898 52.6601C236.129 55.8139 233.591 66.8904 240.206 73.5055C247.052 80.3514 258.897 77.1976 261.359 67.8134C264.051 58.0446 254.436 49.1987 244.898 52.6601ZM255.128 54.5832C265.128 60.6598 260.82 76.1208 249.128 76.1208C247.052 76.1208 244.667 75.5054 243.129 74.5824C233.129 68.5057 237.437 53.0448 249.128 53.0448C251.205 53.0448 253.59 53.6601 255.128 54.5832Z" fill="#875041"/>
<path d="M242.438 60.5078C241.9 60.7385 241.438 61.4308 241.515 62.1231C241.515 62.9692 241.669 63.0461 241.977 62.4308C242.438 61.2001 244.515 61.2001 244.515 62.5077C244.515 63.0461 243.669 64.7384 242.592 66.1999C240.439 69.0459 240.977 69.6613 244.669 68.969L246.438 68.6613L244.746 68.0459L243.054 67.5075L244.592 65.4307C246.669 62.5846 245.284 59.5078 242.438 60.5078Z" fill="#875041"/>
<path d="M248.514 61.6613C247.437 62.7382 247.283 64.1227 248.283 63.4305C248.745 63.1997 249.206 64.5073 249.36 66.2765C249.591 69.1995 249.668 69.0456 249.745 65.1227C249.822 62.7382 249.822 60.7383 249.668 60.7383C249.514 60.7383 249.053 61.1229 248.514 61.6613Z" fill="#875041"/>
<path d="M253.437 61.2767C254.975 61.5844 255.052 61.7382 254.052 64.4304C252.821 67.8918 252.744 69.1995 253.744 69.1995C254.206 69.1995 254.514 68.4303 254.514 67.4303C254.591 66.5073 255.052 64.892 255.667 63.8151C257.283 61.046 257.129 60.7383 254.36 60.8152C252.668 60.8921 252.36 61.046 253.437 61.2767Z" fill="#875041"/>
<path d="M217.821 79.7366C216.283 80.352 216.667 82.8134 218.436 84.121C219.513 84.8902 219.898 85.7364 219.59 86.5825C219.129 87.7363 218.975 87.7363 217.513 86.4286C215.898 84.9672 215.898 84.9672 216.129 86.5056C216.36 87.6594 217.052 88.044 218.744 88.044C221.975 88.044 222.282 85.5825 219.436 83.2749C217.513 81.7365 217.436 81.5058 218.667 81.0442C219.513 80.7366 220.282 80.8904 220.667 81.5827C221.052 82.1211 221.59 82.3519 221.898 82.0442C222.59 81.4288 220.744 79.1982 219.59 79.2751C219.129 79.2751 218.283 79.5058 217.821 79.7366Z" fill="#875041"/>
<path d="M282.662 80.43C281.124 81.9684 281.662 82.8914 283.354 81.5068C284.277 80.7376 284.508 80.7376 284.508 81.7376C284.508 82.353 284.047 83.1222 283.585 83.3529C282.816 83.7375 282.816 83.8914 283.585 84.276C284.047 84.5067 284.508 85.2759 284.508 85.8913C284.508 86.7374 283.97 86.9682 282.585 86.5836C281.124 86.199 280.816 86.3528 281.124 87.2758C281.662 88.5835 284.201 88.8142 284.893 87.6604C285.2 87.1989 285.508 85.5067 285.662 83.8914C286.047 80.1992 284.585 78.507 282.662 80.43Z" fill="#875041"/>
<path d="M299.508 79.9683C299.277 80.3529 299.431 80.7375 299.969 80.7375C300.739 80.7375 300.739 80.9683 300.046 81.6606C298.662 83.0451 298.969 83.8143 300.892 83.7374C301.816 83.7374 302.123 83.5067 301.585 83.2759C300.816 82.9682 300.816 82.6605 301.431 81.8144C302.354 80.8145 301.892 79.1991 300.662 79.1991C300.277 79.1991 299.739 79.5068 299.508 79.9683Z" fill="#875041"/>
<path d="M269.278 82.2749C267.278 84.8902 267.124 86.1209 268.74 86.1209C269.355 86.1209 269.893 86.7363 269.893 87.4286C269.97 88.7362 269.97 88.7362 270.739 87.4286C271.124 86.7363 272.355 86.1209 273.355 86.1209C274.662 86.1209 275.278 86.5825 275.278 87.4286C275.355 90.0439 277.124 85.9671 277.278 82.8134C277.508 79.2751 276.739 79.1981 274.432 82.5826C272.355 85.6594 271.124 85.4287 271.816 82.198C272.432 79.352 271.432 79.352 269.278 82.2749Z" fill="#875041"/>
<path d="M288.206 80.5083C289.206 80.739 289.821 81.2775 289.667 81.739C289.436 82.2774 288.744 83.9697 288.052 85.5081C287.36 87.1234 287.129 88.431 287.513 88.431C287.821 88.431 288.821 86.8157 289.59 84.8158C290.436 82.739 291.206 80.8929 291.282 80.5852C291.436 80.2006 290.436 80.0468 288.975 80.0468C287.129 80.1237 286.898 80.2775 288.206 80.5083Z" fill="#875041"/>
<path d="M225.902 82.2746C225.594 82.89 225.209 84.5822 224.979 85.8899C224.517 88.659 225.594 89.4282 226.286 86.8898C226.517 86.0437 227.132 85.3514 227.594 85.3514C228.132 85.3514 228.363 85.9668 228.132 86.8898C227.902 87.736 227.979 88.4282 228.363 88.4282C229.132 88.4282 229.902 85.5822 229.825 83.0438V81.1208L228.978 82.8131C228.517 83.813 227.825 84.5822 227.517 84.5822C227.209 84.5822 226.825 83.813 226.594 82.8131C226.44 81.5823 226.209 81.4285 225.902 82.2746Z" fill="#875041"/>
<path d="M231.587 82.4313C231.126 82.8928 230.664 84.5081 230.664 85.8927C230.664 87.8926 230.972 88.431 232.126 88.431C234.125 88.431 235.433 86.585 235.125 84.0466C234.895 81.739 233.126 80.8929 231.587 82.4313ZM234.049 83.7389C234.741 84.8158 233.741 86.8926 232.51 86.8926C231.895 86.8926 231.433 86.2773 231.433 85.5081C231.433 83.2774 233.126 82.2005 234.049 83.7389Z" fill="#875041"/>
<path d="M236.592 82.8159C235.516 86.7388 235.362 88.431 235.977 88.431C236.362 88.431 236.9 87.6618 237.054 86.6619L237.362 84.9696L237.516 86.6619C237.516 87.6618 237.9 88.431 238.208 88.431C238.592 88.431 239.285 87.6618 239.823 86.6619L240.669 84.9696L240.208 86.6619C239.977 87.6618 240.131 88.431 240.592 88.431C241.054 88.431 241.438 87.508 241.515 86.2773L241.592 84.2004L242.361 86.3542C242.9 87.8926 243.592 88.431 244.746 88.2772C245.592 88.1234 246.438 87.6618 246.592 87.1234C246.823 86.585 246.361 86.4311 245.361 86.6619C244.438 86.8926 243.746 86.7388 243.746 86.2004C243.746 85.7388 244.592 85.3542 245.669 85.3542C247.746 85.3542 248.207 83.9697 246.669 82.4313C245.438 81.2006 244.9 81.2775 243.438 82.739C242.285 83.8158 242.208 83.8158 242.208 82.739C242.208 80.739 241.054 81.3544 239.669 83.9697L238.439 86.508V84.4312C238.362 81.9698 237.131 80.8929 236.592 82.8159Z" fill="#875041"/>
<path d="M249.282 82.1206C248.744 82.5052 248.128 84.659 247.974 86.9666C247.821 89.2742 247.821 90.5049 248.051 89.7357C248.282 89.0434 249.128 88.428 249.974 88.428C251.897 88.428 253.59 84.9666 252.513 83.1975C251.513 81.6591 250.59 81.3514 249.282 82.1206ZM251.436 84.9666C251.436 86.1974 250.974 86.8896 250.282 86.8896C249.128 86.8896 248.667 84.5051 249.667 83.5821C250.667 82.5052 251.436 83.1206 251.436 84.9666Z" fill="#875041"/>
<path d="M254.434 82.739C253.511 83.8928 253.588 83.9697 255.126 83.5082C256.126 83.1236 256.819 83.2774 256.819 83.7389C256.819 84.2004 256.126 84.585 255.357 84.585C254.511 84.585 253.742 85.0466 253.511 85.5081C252.973 87.2003 253.819 88.431 255.742 88.431C257.126 88.431 257.588 87.8926 258.049 85.8158C258.818 81.6621 256.742 79.9698 254.434 82.739Z" fill="#875041"/>
<path d="M292.741 82.8159C291.664 86.7388 291.51 88.431 292.126 88.431C292.51 88.431 293.049 87.6618 293.202 86.6619L293.51 84.9696L293.664 86.6619C293.664 87.6618 294.049 88.431 294.356 88.431C294.741 88.431 295.433 87.6618 295.972 86.6619L296.818 84.9696L296.356 86.6619C296.125 87.6618 296.279 88.431 296.741 88.431C297.202 88.431 297.587 87.9695 297.587 87.3542C297.587 86.8157 297.818 85.2004 298.048 83.8928C298.664 80.739 297.433 80.816 295.818 83.9697L294.587 86.508V84.4312C294.51 81.9698 293.279 80.8929 292.741 82.8159Z" fill="#875041"/>
<path d="M259.129 83.0466C259.129 83.4312 260.206 83.8158 261.437 83.8158C262.744 83.8158 263.744 83.4312 263.744 83.0466C263.744 82.5851 262.744 82.2774 261.437 82.2774C260.206 82.2774 259.129 82.5851 259.129 83.0466Z" fill="#875041"/>
<path d="M259.129 85.3541C259.129 85.7387 260.206 86.1233 261.437 86.1233C262.744 86.1233 263.744 85.7387 263.744 85.3541C263.744 84.8926 262.744 84.5849 261.437 84.5849C260.206 84.5849 259.129 84.8926 259.129 85.3541Z" fill="#875041"/>
<path d="M367.061 22.7269C366.599 23.1884 366.215 23.9576 366.215 24.3422C366.215 24.8038 366.599 24.7268 367.138 24.1884C367.676 23.65 368.369 23.2654 368.676 23.2654C369.676 23.2654 369.369 25.4191 368.369 25.8806C367.599 26.2652 367.599 26.4191 368.369 26.8037C369.369 27.2652 369.676 30.1882 368.676 30.1882C368.369 30.1882 367.599 29.7266 367.061 29.1882C366.215 28.419 366.061 28.4959 366.369 29.419C366.599 30.0343 367.599 30.5728 368.599 30.5728C370.292 30.5728 370.445 30.2651 370.292 27.1114C370.215 25.1884 370.138 23.4192 370.138 23.1884C369.984 22.1885 367.907 21.8808 367.061 22.7269Z" fill="#875041"/>
<path d="M380.446 23.4948C378.369 26.4178 379.523 30.9561 382.369 30.9561C384.061 30.9561 385.061 28.4177 384.061 26.6485C383.677 25.9563 383.523 24.7255 383.677 24.0333C384.215 21.9564 381.831 21.5718 380.446 23.4948ZM383.138 23.9563C383.138 24.3409 382.6 24.8025 381.985 25.1101C380.831 25.4947 380.446 24.7255 381.369 23.8025C382.061 23.0333 383.138 23.1102 383.138 23.9563ZM383.138 27.8023C383.138 29.5715 381.908 30.5715 381.215 29.4177C380.523 28.3408 381.292 26.3409 382.369 26.3409C382.754 26.3409 383.138 27.0331 383.138 27.8023Z" fill="#875041"/>
<path d="M372.831 23.0333C374.37 23.341 374.447 23.4948 373.447 26.187C372.216 29.6484 372.139 30.9561 373.139 30.9561C373.601 30.9561 373.908 30.1869 373.908 29.1869C373.985 28.2639 374.447 26.6485 375.062 25.5717C376.677 22.8025 376.523 22.4949 373.754 22.5718C372.062 22.6487 371.754 22.8025 372.831 23.0333Z" fill="#875041"/>
<path d="M385.91 23.7269C384.987 26.1114 385.372 27.2652 386.91 26.7268C388.526 26.2652 389.526 27.8036 388.526 29.419C387.987 30.2651 387.68 30.2651 386.526 29.342C385.372 28.419 385.218 28.419 385.603 29.419C385.757 30.0343 386.834 30.5728 387.833 30.5728C390.372 30.5728 390.91 26.8806 388.603 25.4191C386.526 24.1115 386.603 23.4192 388.757 23.0346C390.295 22.7269 390.218 22.7269 388.449 22.5731C387.218 22.5731 386.218 22.9577 385.91 23.7269Z" fill="#875041"/>
<path d="M371.829 33.8057C375.521 33.9595 381.444 33.9595 384.905 33.8057C388.367 33.7287 385.367 33.5749 378.136 33.5749C370.983 33.5749 368.137 33.7287 371.829 33.8057Z" fill="#875041"/>
<path d="M94.7798 106.006C94.6153 106.253 96.4256 106.418 99.8818 106.418C103.215 106.418 105.272 106.253 105.272 106.006C105.272 105.759 103.297 105.595 100.17 105.595C97.1663 105.595 94.9444 105.759 94.7798 106.006Z" fill="#875041"/>
<path d="M107.834 103.93C107.669 104.259 107.628 105.041 107.752 105.658C107.875 106.357 107.793 106.769 107.464 106.769C107.176 106.769 107.093 106.439 107.258 105.822C107.505 104.958 107.505 104.958 106.888 105.699C106.024 106.769 106.065 107.221 107.052 107.468C107.505 107.592 107.875 107.88 107.875 108.126C107.875 108.373 108.122 108.209 108.451 107.756C108.78 107.345 108.904 106.892 108.698 106.769C108.492 106.645 108.287 105.822 108.204 104.917C108.122 103.93 107.957 103.518 107.834 103.93Z" fill="#875041"/>
<path d="M110.656 105.2C109.546 107.34 109.504 107.792 110.574 107.792C111.027 107.792 111.397 108.039 111.397 108.286C111.438 108.657 111.562 108.615 111.767 108.204C111.932 107.875 111.973 106.64 111.85 105.529L111.562 103.472L110.656 105.2ZM111.397 106.147C111.397 106.599 111.109 106.97 110.78 106.97C110.245 106.97 110.245 106.846 110.656 106.147C110.944 105.694 111.232 105.324 111.274 105.324C111.356 105.324 111.397 105.694 111.397 106.147Z" fill="#875041"/>
<path d="M95.4068 99.2133C94.7073 99.9539 94.5427 102.135 95.1188 103.04C95.3245 103.369 95.8182 103.534 96.2297 103.451C96.8468 103.369 97.0526 102.916 97.1349 101.435C97.2994 99.1721 96.4765 98.1435 95.4068 99.2133ZM96.6 101.271C96.6 102.176 96.3943 102.916 96.1062 102.999C95.7359 103.122 95.5713 102.628 95.5713 101.271C95.5713 99.9127 95.7359 99.419 96.1062 99.5013C96.3943 99.6247 96.6 100.365 96.6 101.271Z" fill="#875041"/>
<path d="M417.445 34.6304C416.676 35.1689 416.368 35.9381 416.676 36.2458C416.984 36.6304 417.599 36.3996 417.984 35.7842C418.522 34.8612 418.907 34.8612 419.599 35.5535C420.291 36.2458 420.061 37.0919 418.522 39.1687C417.368 40.6302 416.445 42.0148 416.445 42.2455C416.445 42.4763 417.599 42.707 418.984 42.707C421.137 42.6301 421.291 42.5532 420.214 41.7071C419.061 40.861 419.061 40.5533 419.984 39.2456C422.368 36.015 420.445 32.3998 417.445 34.6304Z" fill="#875041"/>
<path d="M425.752 34.4779C425.291 34.9394 424.906 35.6317 424.906 36.0932C424.906 36.5547 425.291 36.4778 425.829 35.9394C426.368 35.4009 427.06 35.0163 427.368 35.0163C428.368 35.0163 428.06 37.1701 427.06 37.6316C426.291 38.0162 426.291 38.1701 427.06 38.5547C428.06 39.0162 428.368 41.9391 427.368 41.9391C427.06 41.9391 426.291 41.4776 425.752 40.9392C424.906 40.17 424.752 40.2469 425.06 41.1699C425.291 41.7853 426.291 42.3237 427.291 42.3237C428.983 42.3237 429.137 42.0161 428.983 38.8623C428.906 36.9393 428.829 35.1702 428.829 34.9394C428.675 33.9395 426.598 33.6318 425.752 34.4779Z" fill="#875041"/>
<path d="M431.216 34.3997C430.678 34.9381 430.293 35.6304 430.293 36.0919C430.293 36.5534 430.678 36.4765 431.216 35.9381C432.524 34.6304 433.37 34.7843 433.37 36.3996C433.37 37.2457 432.677 38.4764 431.831 39.2456C429.524 41.3225 429.908 42.707 432.677 42.707C433.985 42.707 434.831 42.3994 434.524 41.9378C434.293 41.4763 433.524 41.1686 432.831 41.1686C431.754 41.1686 431.831 40.861 433.216 39.3995C434.139 38.3995 434.908 37.0919 434.908 36.4765C434.908 35.3227 433.447 33.4766 432.601 33.4766C432.37 33.4766 431.754 33.8612 431.216 34.3997Z" fill="#875041"/>
<path d="M416.058 45.7837C416.674 46.7837 434.673 46.7837 435.288 45.7837C435.596 45.3222 432.212 45.0145 425.673 45.0145C419.135 45.0145 415.751 45.3222 416.058 45.7837Z" fill="#875041"/>
<path d="M402.67 5.77552L405.672 8.77541V4.39096C405.672 1.8526 405.372 0.00652122 404.846 0.00652122C404.471 0.00652122 404.321 0.314201 404.546 0.775722C405.222 1.8526 403.946 1.69876 402.67 0.544962C401.77 -0.224238 401.77 -0.147319 402.595 0.929562C403.121 1.69876 403.346 2.31412 403.045 2.31412C402.67 2.31412 401.695 1.69876 400.869 0.929562C399.294 -0.378078 399.294 -0.378078 400.719 1.39108C401.545 2.31412 402.67 3.0064 403.271 2.92948C403.871 2.77564 404.546 3.16024 404.771 3.7756C404.997 4.46788 404.771 4.62172 404.096 4.23712C403.271 3.7756 403.196 3.85252 403.946 4.69864C404.471 5.23708 404.921 6.0832 404.921 6.4678C404.921 7.00625 404.696 7.08317 404.321 6.54472C403.496 5.39092 399.669 2.00644 399.669 2.39104C399.669 2.6218 401.019 4.1602 402.67 5.77552Z" fill="#875041"/>
<path d="M408.3 8.46584C410.101 8.46584 410.176 8.23508 410.176 4.23523C410.176 0.235391 410.101 0.00463009 408.3 0.00463009C406.499 0.00463009 406.424 0.235391 406.424 4.23523C406.424 8.23508 406.499 8.46584 408.3 8.46584Z" fill="#875041"/>
</svg>
