<svg width="19" height="19" viewBox="0 0 19 19" fill="none" xmlns="http://www.w3.org/2000/svg">
<path d="M6.43767 0.0492172C7.2913 0.186543 8.18948 0.572533 8.90579 1.10327C9.66664 1.67113 10.3941 2.65095 10.743 3.5751C11.1772 4.72937 11.2069 6.12858 10.8172 7.28656C10.691 7.66884 10.4089 8.25525 10.1937 8.58557L10.0229 8.84537L14.4507 13.2806C17.4941 16.3277 18.897 17.7603 18.9453 17.8605C18.9898 17.9644 19.0047 18.0683 18.9935 18.2576C18.9787 18.5657 18.8488 18.7772 18.5964 18.9108C18.396 19.0148 18.0582 19.0259 17.8578 18.9331C17.7762 18.896 17.2603 18.4135 16.5811 17.738L15.438 16.606L14.2985 17.738C13.6156 18.4135 13.0997 18.896 13.0181 18.9331C12.8177 19.0259 12.4799 19.0148 12.2795 18.9108C12.0271 18.7772 11.8972 18.5657 11.8824 18.2576C11.8712 18.0683 11.8824 17.9644 11.9343 17.8605C11.9752 17.7677 12.4168 17.2964 13.1331 16.5726L14.2688 15.4332L13.6676 14.832L13.0663 14.2307L12.3277 14.9581C11.5335 15.7487 11.4036 15.8415 11.077 15.8415C10.6279 15.8415 10.279 15.4889 10.279 15.0361C10.2827 14.7169 10.3792 14.5833 11.1624 13.7927L11.8898 13.0542L10.3718 11.5362L8.85011 10.0182L8.59031 10.1889C7.76266 10.7308 6.81252 11.0314 5.78445 11.0797C4.19224 11.1502 2.68167 10.5564 1.56824 9.41694C1.20823 9.0495 1.03008 8.81939 0.755426 8.36288C0.406549 7.78018 0.157883 7.08243 0.050251 6.39581C-0.0165558 5.96528 -0.0165558 5.07453 0.050251 4.66998C0.447376 2.26496 2.2697 0.442633 4.67473 0.0455074C5.06443 -0.0175877 6.02941 -0.013876 6.43767 0.0492172ZM5.10154 1.6303C4.19595 1.74164 3.4017 2.12763 2.76704 2.76229C1.18967 4.33966 1.23049 6.86345 2.85982 8.4C3.35716 8.87135 3.86563 9.15342 4.58194 9.35384C4.9902 9.4689 5.85126 9.48745 6.30777 9.39096C7.63647 9.11631 8.72393 8.19958 9.20642 6.95253C9.41055 6.42921 9.47364 6.03209 9.45137 5.39372C9.42539 4.66998 9.32518 4.29141 8.99857 3.67902C8.40845 2.5693 7.28017 1.78989 6.02941 1.6303C5.65826 1.58576 5.48011 1.58576 5.10154 1.6303Z" fill="#875041"/>
</svg>
