<svg width="25" height="25" viewBox="0 0 25 25" fill="none" xmlns="http://www.w3.org/2000/svg">
<path d="M11.1495 0.0522442C8.89208 0.286348 6.4953 1.27293 4.68378 2.71657C4.14311 3.15134 3.21227 4.07661 2.76078 4.64515C-1.30817 9.71183 -0.828815 17.0582 3.86442 21.5452C5.76512 23.3568 8.05042 24.466 10.7593 24.884C11.6344 25.0234 13.3847 25.0234 14.2709 24.884C15.6811 24.6722 16.8461 24.3043 18.0612 23.7023C21.7901 21.8462 24.2482 18.4461 24.8948 14.2601C25.0341 13.3795 25.0341 11.6348 24.9004 10.7486C24.4879 8.06753 23.3675 5.74878 21.5616 3.85923C19.5215 1.72999 16.8851 0.420122 13.9476 0.0745411C13.1896 -0.0146427 11.9131 -0.0257893 11.1495 0.0522442ZM14.1706 1.35097C18.613 2.03656 22.236 5.28615 23.3898 9.60593C23.6407 10.5479 23.702 11.0161 23.7298 12.1978C23.7521 13.084 23.7354 13.4909 23.6685 14.0037C22.9662 19.0091 19.031 22.9499 14.0424 23.6522C13.2063 23.7692 11.7404 23.7692 10.9489 23.6522C6.11628 22.9387 2.34274 19.3213 1.42304 14.511C0.821063 11.3673 1.72404 7.88916 3.78638 5.3809C4.17098 4.91269 5.02379 4.06546 5.48085 3.69758C7.10843 2.38771 9.25439 1.51261 11.4282 1.27293C12.0525 1.20604 13.4906 1.25064 14.1706 1.35097Z" fill="#F8F0E5"/>
<path d="M9.80075 7.20921C9.71714 7.25938 9.62239 7.34299 9.58894 7.4043C9.54992 7.47119 9.5332 9.20467 9.5332 12.5156V17.5265L9.68927 17.6826C9.89551 17.8721 10.1854 17.9223 10.4139 17.8052C10.7595 17.6269 10.7595 17.6101 10.7595 15.2356V13.0897H12.7828C14.4717 13.0897 14.8563 13.073 15.1127 13.0005C15.9209 12.7608 16.6232 12.1811 16.9632 11.4677C17.7491 9.82338 17.0301 7.97841 15.3468 7.30397L14.9678 7.15347L12.4595 7.14233C10.3136 7.13118 9.92895 7.13675 9.80075 7.20921ZM14.9678 8.50793C15.1238 8.58039 15.3635 8.75319 15.5084 8.89253C15.8596 9.23812 16.0157 9.61157 16.0212 10.1132C16.0268 10.4588 16.0045 10.5536 15.8317 10.8936C15.6924 11.1667 15.5586 11.3339 15.3579 11.4844C14.8842 11.8467 14.7615 11.8634 12.6434 11.8634H10.7595V10.1021V8.34629L12.7271 8.36301C14.6389 8.37973 14.6946 8.38531 14.9678 8.50793Z" fill="#F8F0E5"/>
</svg>
