<svg width="149" height="32" viewBox="0 0 149 32" fill="none" xmlns="http://www.w3.org/2000/svg">
<path d="M31.6 17.5201C31.5733 19.3867 31.2133 21.1467 30.52 22.8001C29.8266 24.4267 28.84 25.8667 27.56 27.1201C26.28 28.3734 24.72 29.3601 22.88 30.0801C21.0666 30.7734 18.9866 31.1201 16.64 31.1201C14.2666 31.1201 12.0666 30.7601 10.04 30.0401C8.01328 29.3201 6.23995 28.2934 4.71995 26.9601C3.22662 25.6001 2.06662 23.9601 1.23995 22.0401C0.413285 20.1201 -4.87566e-05 17.9601 -4.87566e-05 15.5601C-4.87566e-05 13.1601 0.413285 11.0001 1.23995 9.08006C2.09328 7.16006 3.27995 5.53339 4.79995 4.20006C6.31995 2.84006 8.10662 1.80006 10.16 1.08006C12.2133 0.360056 14.4666 5.62668e-05 16.92 5.62668e-05C19.9866 5.62668e-05 22.6666 0.506724 24.96 1.52006C27.28 2.50672 29.1466 3.86672 30.56 5.60006C31.9733 7.33339 32.84 9.32006 33.16 11.5601H27.8C27.5066 10.1467 26.8666 8.92006 25.88 7.88006C24.92 6.84006 23.68 6.04006 22.16 5.48006C20.64 4.92006 18.88 4.64006 16.88 4.64006C14.5333 4.64006 12.4933 5.08006 10.76 5.96006C9.05328 6.81339 7.71995 8.05339 6.75995 9.68006C5.82662 11.3067 5.35995 13.2667 5.35995 15.5601C5.35995 17.8534 5.83995 19.8267 6.79995 21.4801C7.78662 23.1334 9.17328 24.4001 10.96 25.2801C12.7466 26.1601 14.8533 26.6001 17.28 26.6001C19.6266 26.6001 21.68 26.2001 23.44 25.4001C25.2 24.6001 26.5866 23.4934 27.6 22.0801C28.6133 20.6401 29.16 18.9734 29.24 17.0801L31.6 17.5201ZM18.32 19.8001V15.8001H33.48V30.5601H29.56L28.92 18.1201L30.16 19.8001H18.32ZM42.8646 23.6801V19.3201H63.8246V23.6801H42.8646ZM56.7846 0.560056L71.1846 30.5601H65.5446L52.4646 2.56006H54.5046L41.4246 30.5601H35.7846L50.1846 0.560056H56.7846ZM78.0415 17.6801C78.0415 19.4667 78.4015 21.0134 79.1215 22.3201C79.8415 23.6267 80.8682 24.6401 82.2015 25.3601C83.5615 26.0534 85.1748 26.4001 87.0415 26.4001C88.9348 26.4001 90.5482 26.0534 91.8815 25.3601C93.2148 24.6401 94.2415 23.6267 94.9615 22.3201C95.6815 21.0134 96.0415 19.4667 96.0415 17.6801V0.560056H101.322V17.8801C101.322 20.5201 100.722 22.8401 99.5215 24.8401C98.3215 26.8134 96.6548 28.3601 94.5215 29.4801C92.3882 30.5734 89.8948 31.1201 87.0415 31.1201C84.2148 31.1201 81.7215 30.5734 79.5615 29.4801C77.4282 28.3601 75.7615 26.8134 74.5615 24.8401C73.3615 22.8401 72.7615 20.5201 72.7615 17.8801V0.560056H78.0415V17.6801ZM121.214 0.560056C124.627 0.560056 127.614 1.18672 130.174 2.44006C132.76 3.69339 134.774 5.45339 136.214 7.72006C137.654 9.96006 138.374 12.5734 138.374 15.5601C138.374 18.5467 137.654 21.1734 136.214 23.4401C134.774 25.6801 132.76 27.4267 130.174 28.6801C127.614 29.9334 124.627 30.5601 121.214 30.5601H107.654V0.560056H121.214ZM112.934 28.7201L110.014 25.9201H121.574C123.867 25.9201 125.867 25.4934 127.574 24.6401C129.307 23.7601 130.64 22.5467 131.574 21.0001C132.534 19.4267 133.014 17.6134 133.014 15.5601C133.014 13.4801 132.534 11.6667 131.574 10.1201C130.64 8.57339 129.307 7.37339 127.574 6.52006C125.867 5.64006 123.867 5.20006 121.574 5.20006H110.014L112.934 2.40006V28.7201ZM143.513 0.560056H148.793V30.5601H143.513V0.560056Z" fill="#F8F0E5"/>
</svg>
